<?xml version="1.0" encoding="UTF-8" standalone="no"?>
<!DOCTYPE svg PUBLIC "-//W3C//DTD SVG 1.1//EN" "http://www.w3.org/Graphics/SVG/1.1/DTD/svg11.dtd">
<svg xmlns="http://www.w3.org/2000/svg" version="1.1" viewBox="0.00 0.00 1280.00 720.00">
<g stroke-width="2.00" fill="none" stroke-linecap="butt">
<path stroke="#fff0be" vector-effect="non-scaling-stroke" d="
  M 466.47 307.70
  L 463.03 308.44"
/>
<path stroke="#fede80" vector-effect="non-scaling-stroke" d="
  M 463.03 308.44
  L 456.72 310.14"
/>
<path stroke="#fff0be" vector-effect="non-scaling-stroke" d="
  M 456.72 310.14
  Q 454.72 309.76 453.13 310.71"
/>
<path stroke="#fede80" vector-effect="non-scaling-stroke" d="
  M 453.13 310.71
  L 447.97 311.88"
/>
<path stroke="#fff0be" vector-effect="non-scaling-stroke" d="
  M 447.97 311.88
  Q 445.36 311.50 442.93 312.50"
/>
<path stroke="#fede80" vector-effect="non-scaling-stroke" d="
  M 442.93 312.50
  Q 440.68 313.11 438.22 313.44
  Q 435.03 313.87 431.93 314.70
  Q 429.17 315.43 425.72 316.12
  Q 421.89 316.89 418.27 318.36"
/>
<path stroke="#fff0be" vector-effect="non-scaling-stroke" d="
  M 418.27 318.36
  Q 417.25 317.83 415.90 318.52"
/>
<path stroke="#fede80" vector-effect="non-scaling-stroke" d="
  M 415.90 318.52
  Q 411.71 320.18 407.29 321.15
  C 404.53 321.75 402.01 322.83 399.29 323.53
  Q 396.27 324.30 393.31 325.21
  Q 389.87 326.26 386.34 327.41
  Q 377.85 330.17 368.55 333.74
  A 0.91 0.90 1.8 0 0 368.09 334.17
  Q 367.82 334.73 367.30 334.54
  Q 366.78 334.35 366.28 334.58
  Q 361.36 336.83 356.83 338.86
  Q 340.27 346.31 326.20 358.95
  Q 311.60 372.07 303.81 392.59"
/>
<path stroke="#fff0be" vector-effect="non-scaling-stroke" d="
  M 303.81 392.59
  Q 302.43 394.46 302.32 396.46"
/>
<path stroke="#fede80" vector-effect="non-scaling-stroke" d="
  M 302.32 396.46
  L 301.74 398.43"
/>
<path stroke="#fff0be" vector-effect="non-scaling-stroke" d="
  M 301.74 398.43
  Q 300.85 400.03 300.71 401.60"
/>
<path stroke="#fede80" vector-effect="non-scaling-stroke" d="
  M 300.71 401.60
  Q 297.26 414.65 295.87 430.27
  Q 295.59 433.39 296.72 435.91
  Q 297.93 438.59 298.15 439.76
  Q 298.61 442.25 299.13 444.84
  Q 299.49 446.64 299.75 449.95
  Q 300.04 453.66 301.13 457.29"
/>
<path stroke="#fff0be" vector-effect="non-scaling-stroke" d="
  M 301.13 457.29
  Q 300.74 458.40 301.62 459.71"
/>
<path stroke="#fede80" vector-effect="non-scaling-stroke" d="
  M 301.62 459.71
  Q 312.08 483.71 331.69 499.56
  Q 349.75 514.16 373.41 528.08
  C 375.98 529.60 378.69 530.69 381.26 532.09
  Q 383.66 533.40 386.35 533.80
  Q 400.19 535.85 414.07 537.72
  Q 417.21 538.15 420.32 539.58
  Q 436.81 547.15 453.95 554.94
  Q 484.20 568.69 520.28 583.40
  Q 523.62 584.76 526.80 585.72
  Q 526.87 585.74 526.90 585.80
  Q 526.92 585.84 526.94 585.88
  Q 527.00 586.03 527.13 586.08
  Q 535.01 588.98 543.07 591.56"
/>
<path stroke="#fff0be" vector-effect="non-scaling-stroke" d="
  M 543.07 591.56
  Q 544.07 592.49 545.75 592.40"
/>
<path stroke="#fede80" vector-effect="non-scaling-stroke" d="
  M 545.75 592.40
  Q 563.62 598.01 582.16 599.61
  C 597.59 600.95 612.92 598.71 626.40 590.96
  C 637.25 584.73 646.41 575.74 655.59 567.16
  Q 662.49 560.71 670.88 555.04
  Q 680.76 548.36 691.04 542.38
  Q 710.18 531.25 728.62 525.15
  Q 741.89 520.75 756.86 518.17
  Q 777.21 514.65 797.00 512.96
  Q 828.60 510.27 855.14 507.30
  Q 880.18 504.49 901.46 498.42
  Q 912.96 495.14 923.62 489.80
  Q 938.70 482.24 948.90 469.69
  Q 964.56 450.42 972.17 426.44
  C 973.60 421.94 973.71 417.03 973.73 412.37
  C 973.76 407.83 974.63 403.57 975.23 399.25
  Q 977.71 381.33 974.98 362.01
  Q 973.72 353.09 971.53 343.47
  Q 967.76 326.91 963.85 312.38
  Q 955.90 282.86 944.80 256.30
  C 933.94 230.28 919.95 205.73 902.49 184.88
  Q 889.87 169.80 873.63 156.88
  Q 864.63 149.71 856.68 145.47
  Q 848.79 141.26 838.50 138.19
  Q 825.90 134.45 812.68 130.16
  Q 799.73 125.96 783.65 123.31
  Q 768.41 120.80 751.21 120.01
  Q 723.86 118.73 697.92 125.74
  Q 694.76 126.59 691.93 127.28
  Q 687.97 128.23 684.12 129.76
  Q 683.66 129.94 683.16 129.92
  Q 682.72 129.90 682.29 130.04
  Q 671.86 133.43 662.37 137.23
  Q 650.64 141.93 640.83 147.89
  Q 621.35 159.74 601.27 176.67
  Q 555.40 215.37 520.01 263.93
  Q 515.12 270.64 508.90 277.90
  Q 498.06 290.57 485.49 299.43
  Q 478.45 304.39 466.47 307.70"
/>
<path stroke="#fecf3f" vector-effect="non-scaling-stroke" d="
  M 545.75 592.40
  Q 544.65 591.11 543.07 591.56"
/>
<path stroke="#fecf3f" vector-effect="non-scaling-stroke" d="
  M 301.62 459.71
  Q 302.02 458.19 301.13 457.29"
/>
<path stroke="#fecf3f" vector-effect="non-scaling-stroke" d="
  M 300.71 401.60
  Q 301.69 401.52 301.74 398.43"
/>
<path stroke="#fecf3f" vector-effect="non-scaling-stroke" d="
  M 302.32 396.46
  Q 303.95 395.36 303.81 392.59"
/>
<path stroke="#fecf3f" vector-effect="non-scaling-stroke" d="
  M 415.90 318.52
  Q 415.80 319.84 418.27 318.36"
/>
<path stroke="#fecf3f" vector-effect="non-scaling-stroke" d="
  M 442.93 312.50
  Q 443.76 313.02 444.94 312.97
  C 446.14 312.92 446.71 312.06 447.97 311.88"
/>
<path stroke="#fecf3f" vector-effect="non-scaling-stroke" d="
  M 453.13 310.71
  Q 455.03 311.55 456.72 310.14"
/>
<path stroke="#fecf3f" vector-effect="non-scaling-stroke" d="
  M 463.03 308.44
  Q 464.63 309.06 466.47 307.70"
/>
<path stroke="#845f0b" vector-effect="non-scaling-stroke" d="
  M 733.36 449.97
  Q 736.69 455.42 739.15 461.23
  C 743.16 470.68 744.69 483.81 739.45 492.51
  Q 734.43 500.85 725.29 503.75
  Q 719.37 505.63 714.30 505.63
  Q 696.95 505.61 680.93 496.99"
/>
<path stroke="#7f5f00" vector-effect="non-scaling-stroke" d="
  M 680.93 496.99
  Q 679.50 495.23 677.58 495.31"
/>
<path stroke="#845f0b" vector-effect="non-scaling-stroke" d="
  M 677.58 495.31
  L 675.91 494.28"
/>
<path stroke="#7f5f00" vector-effect="non-scaling-stroke" d="
  M 675.91 494.28
  Q 673.18 491.37 670.28 490.71"
/>
<path stroke="#845f0b" vector-effect="non-scaling-stroke" d="
  M 670.28 490.71
  L 665.19 487.01
  A 1.35 1.34 -79.4 0 1 664.66 486.23
  Q 663.51 481.71 662.02 479.51
  Q 661.72 479.08 660.40 477.73"
/>
<path stroke="#7f5f00" vector-effect="non-scaling-stroke" d="
  M 660.40 477.73
  Q 660.45 476.55 659.30 476.06"
/>
<path stroke="#845f0b" vector-effect="non-scaling-stroke" d="
  M 659.30 476.06
  Q 658.06 474.49 658.33 473.32
  Q 660.01 466.17 660.10 461.62
  Q 660.33 450.52 654.13 436.22
  Q 653.83 435.54 653.23 435.96
  L 652.46 436.49
  A 0.93 0.92 59.5 0 1 651.10 436.13
  Q 646.80 427.43 640.75 418.57
  Q 639.81 417.19 638.56 416.08
  Q 638.27 415.82 638.10 415.46
  Q 637.38 413.97 636.15 412.70"
/>
<path stroke="#7f5f00" vector-effect="non-scaling-stroke" d="
  M 636.15 412.70
  Q 635.85 411.59 634.80 411.06"
/>
<path stroke="#845f0b" vector-effect="non-scaling-stroke" d="
  M 634.80 411.06
  L 632.20 408.46"
/>
<path stroke="#7f5f00" vector-effect="non-scaling-stroke" d="
  M 632.20 408.46
  Q 632.02 407.02 630.69 406.39"
/>
<path stroke="#845f0b" vector-effect="non-scaling-stroke" d="
  M 630.69 406.39
  L 616.69 395.24"
/>
<path stroke="#7f5f00" vector-effect="non-scaling-stroke" d="
  M 616.69 395.24
  Q 615.15 393.64 613.56 393.54"
/>
<path stroke="#845f0b" vector-effect="non-scaling-stroke" d="
  M 613.56 393.54
  C 608.61 390.71 602.59 389.37 597.00 390.70
  Q 595.40 391.08 593.96 391.30"
/>
<path stroke="#7f5f00" vector-effect="non-scaling-stroke" d="
  M 593.96 391.30
  C 587.30 379.40 575.42 371.18 562.04 368.90
  Q 556.57 367.97 545.46 369.03
  Q 461.93 376.96 380.71 384.80
  Q 362.10 386.60 360.82 386.85
  Q 338.82 391.18 328.01 412.19
  Q 327.29 413.60 326.73 415.36
  C 325.93 417.93 324.84 420.38 324.40 423.03
  Q 321.71 439.39 328.39 452.90
  Q 334.09 464.43 344.67 471.15
  Q 357.04 479.00 368.44 478.37
  Q 379.75 477.74 394.52 476.31
  Q 462.10 469.74 548.50 461.47
  Q 553.87 460.96 555.98 460.95"
/>
<path stroke="#845f0b" vector-effect="non-scaling-stroke" d="
  M 555.98 460.95
  L 562.14 467.57"
/>
<path stroke="#7f5f00" vector-effect="non-scaling-stroke" d="
  M 562.14 467.57
  Q 564.40 470.89 568.29 472.53"
/>
<path stroke="#845f0b" vector-effect="non-scaling-stroke" d="
  M 568.29 472.53
  C 570.97 474.39 573.51 476.61 576.49 478.09
  Q 578.06 478.85 579.52 479.81
  Q 580.43 480.40 582.31 481.14
  Q 583.77 481.72 585.03 482.81"
/>
<path stroke="#7f5f00" vector-effect="non-scaling-stroke" d="
  M 585.03 482.81
  Q 586.27 483.76 587.47 483.66"
/>
<path stroke="#845f0b" vector-effect="non-scaling-stroke" d="
  M 587.47 483.66
  L 588.55 484.35"
/>
<path stroke="#7f5f00" vector-effect="non-scaling-stroke" d="
  M 588.55 484.35
  Q 589.06 485.03 590.69 484.97"
/>
<path stroke="#845f0b" vector-effect="non-scaling-stroke" d="
  M 590.69 484.97
  Q 599.22 488.38 608.23 490.40
  Q 608.90 490.55 608.76 491.22
  L 608.50 492.50
  Q 608.37 493.17 609.04 493.30
  C 620.16 495.44 632.31 495.41 642.39 490.62
  C 643.83 489.93 645.24 489.00 646.76 488.54
  Q 647.25 488.39 647.70 488.60
  Q 650.61 489.92 653.51 491.24
  Q 655.19 492.01 659.33 492.23
  C 661.21 492.34 662.12 493.22 663.52 494.26"
/>
<path stroke="#7f5f00" vector-effect="non-scaling-stroke" d="
  M 663.52 494.26
  L 669.23 498.56
  Q 669.61 498.85 670.09 498.85
  Q 670.45 498.86 670.71 499.00"
/>
<path stroke="#845f0b" vector-effect="non-scaling-stroke" d="
  M 670.71 499.00
  L 672.35 500.01"
/>
<path stroke="#7f5f00" vector-effect="non-scaling-stroke" d="
  M 672.35 500.01
  Q 673.66 501.36 674.48 500.67"
/>
<path stroke="#845f0b" vector-effect="non-scaling-stroke" d="
  M 674.48 500.67
  Q 675.63 501.80 678.73 503.22
  Q 688.83 507.86 695.21 509.75
  Q 708.99 513.82 723.27 511.17
  Q 729.66 509.98 736.32 505.80
  C 737.00 505.38 737.48 504.48 738.21 504.28
  Q 738.78 504.12 739.21 503.71
  Q 750.78 492.54 749.44 476.23
  Q 748.29 462.28 740.95 449.84"
/>
<path stroke="#c6cd61" vector-effect="non-scaling-stroke" d="
  M 740.95 449.84
  L 760.89 449.96"
/>
<path stroke="#f9dc80" vector-effect="non-scaling-stroke" d="
  M 760.89 449.96
  Q 803.54 449.96 846.52 449.98
  Q 854.09 449.98 856.38 449.13
  Q 862.12 447.00 862.13 439.24
  Q 862.20 339.74 862.15 233.69
  Q 862.15 228.08 857.80 225.42
  Q 855.44 223.98 849.92 223.98
  Q 805.48 223.96 760.88 223.98"
/>
<path stroke="#c6cd61" vector-effect="non-scaling-stroke" d="
  M 760.88 223.98
  Q 728.10 223.95 695.14 223.99
  Q 689.38 223.99 687.06 225.20
  Q 682.75 227.45 682.75 233.38
  Q 682.70 337.24 682.75 440.14
  Q 682.75 446.29 687.64 448.72
  Q 690.06 449.92 696.79 449.93
  Q 715.11 449.97 733.36 449.97"
/>
<path stroke="#c2ece0" vector-effect="non-scaling-stroke" d="
  M 760.88 223.98
  L 760.89 449.96"
/>
<path stroke="#4d6f6b" vector-effect="non-scaling-stroke" d="
  M 740.95 449.84
  Q 737.18 442.97 732.20 436.95"
/>
<path stroke="#67a7aa" vector-effect="non-scaling-stroke" d="
  M 732.20 436.95
  Q 731.96 435.43 730.83 434.97"
/>
<path stroke="#4d6f6b" vector-effect="non-scaling-stroke" d="
  M 730.83 434.97
  Q 728.52 433.32 727.45 430.98
  Q 727.24 430.53 727.43 430.06
  Q 729.59 424.67 728.73 419.09"
/>
<path stroke="#c7df9f" vector-effect="non-scaling-stroke" d="
  M 728.73 419.09
  Q 734.56 419.24 740.24 419.11
  C 743.33 419.04 745.83 418.05 745.78 414.78
  Q 745.71 409.78 745.77 405.43
  A 4.11 4.11 0.0 0 0 741.65 401.26
  Q 723.65 401.29 702.04 401.24
  C 698.96 401.23 697.64 403.61 697.63 406.51
  Q 697.62 411.01 697.78 412.36"
/>
<path stroke="#4d6f6b" vector-effect="non-scaling-stroke" d="
  M 697.78 412.36
  Q 691.87 421.83 696.50 430.91
  Q 698.26 434.35 700.99 436.47
  C 706.08 440.42 713.27 441.01 719.02 438.31
  Q 720.81 437.47 722.34 436.47
  Q 722.87 436.12 723.20 436.66
  Q 724.50 438.82 726.62 440.51"
/>
<path stroke="#67a7aa" vector-effect="non-scaling-stroke" d="
  M 726.62 440.51
  Q 726.34 441.81 727.99 442.43"
/>
<path stroke="#4d6f6b" vector-effect="non-scaling-stroke" d="
  M 727.99 442.43
  L 733.36 449.97"
/>
<path stroke="#06000b" vector-effect="non-scaling-stroke" d="
  M 613.56 393.54
  Q 615.07 395.23 616.69 395.24"
/>
<path stroke="#06000b" vector-effect="non-scaling-stroke" d="
  M 630.69 406.39
  Q 631.25 407.59 632.20 408.46"
/>
<path stroke="#06000b" vector-effect="non-scaling-stroke" d="
  M 634.80 411.06
  Q 634.92 412.19 636.15 412.70"
/>
<path stroke="#06000b" vector-effect="non-scaling-stroke" d="
  M 659.30 476.06
  Q 659.27 477.24 660.40 477.73"
/>
<path stroke="#06000b" vector-effect="non-scaling-stroke" d="
  M 670.28 490.71
  Q 672.95 493.46 675.91 494.28"
/>
<path stroke="#06000b" vector-effect="non-scaling-stroke" d="
  M 677.58 495.31
  Q 679.01 496.51 680.93 496.99"
/>
<path stroke="#253854" vector-effect="non-scaling-stroke" d="
  M 727.99 442.43
  Q 727.75 441.22 726.62 440.51"
/>
<path stroke="#857049" vector-effect="non-scaling-stroke" d="
  M 697.78 412.36
  Q 700.60 409.08 703.00 407.80
  C 713.71 402.08 725.79 407.32 728.73 419.09"
/>
<path stroke="#253854" vector-effect="non-scaling-stroke" d="
  M 730.83 434.97
  Q 730.51 436.17 732.20 436.95"
/>
<path stroke="#06000b" vector-effect="non-scaling-stroke" d="
  M 674.48 500.67
  L 672.35 500.01"
/>
<path stroke="#06000b" vector-effect="non-scaling-stroke" d="
  M 670.71 499.00
  Q 667.35 495.76 663.52 494.26"
/>
<path stroke="#06000b" vector-effect="non-scaling-stroke" d="
  M 590.69 484.97
  Q 589.89 484.24 588.55 484.35"
/>
<path stroke="#06000b" vector-effect="non-scaling-stroke" d="
  M 587.47 483.66
  Q 586.57 482.78 585.03 482.81"
/>
<path stroke="#06000b" vector-effect="non-scaling-stroke" d="
  M 568.29 472.53
  L 562.14 467.57"
/>
<path stroke="#85808a" vector-effect="non-scaling-stroke" d="
  M 554.44 426.61
  L 565.46 425.46
  Q 565.98 425.41 566.02 424.89
  Q 566.04 424.59 565.97 424.32"
/>
<path stroke="#845f0b" vector-effect="non-scaling-stroke" d="
  M 563.75 459.63
  L 565.07 461.30"
/>
<path stroke="#06000b" vector-effect="non-scaling-stroke" d="
  M 565.07 461.30
  Q 565.48 462.54 566.71 463.16"
/>
<path stroke="#845f0b" vector-effect="non-scaling-stroke" d="
  M 566.71 463.16
  Q 569.62 465.57 572.55 467.83
  Q 573.63 468.67 576.21 469.97
  Q 578.10 470.93 579.78 472.36"
/>
<path stroke="#06000b" vector-effect="non-scaling-stroke" d="
  M 579.78 472.36
  Q 581.33 473.49 582.85 473.75"
/>
<path stroke="#845f0b" vector-effect="non-scaling-stroke" d="
  M 582.85 473.75
  C 584.42 475.16 586.61 475.73 588.06 476.53
  Q 590.34 477.76 593.07 478.78
  Q 601.42 481.89 609.46 483.66
  A 0.69 0.68 2.7 0 0 610.29 482.91
  Q 610.21 482.28 610.51 481.73
  Q 610.76 481.27 611.27 481.36
  C 619.91 482.82 631.34 483.48 639.09 478.51"
/>
<path stroke="#06000b" vector-effect="non-scaling-stroke" d="
  M 639.09 478.51
  Q 640.31 478.21 640.59 477.53"
/>
<path stroke="#845f0b" vector-effect="non-scaling-stroke" d="
  M 640.59 477.53
  Q 646.02 472.76 647.17 467.44
  Q 648.44 461.61 646.86 453.41
  Q 645.74 447.62 642.97 441.15
  A 0.65 0.64 74.7 0 1 643.47 440.26
  L 644.51 440.12
  Q 645.36 440.01 645.00 439.23
  Q 640.38 429.36 633.71 420.71
  Q 633.61 420.57 633.63 420.41
  Q 633.66 420.13 633.47 419.92
  L 628.50 414.41"
/>
<path stroke="#06000b" vector-effect="non-scaling-stroke" d="
  M 628.50 414.41
  Q 627.68 412.64 626.02 411.53"
/>
<path stroke="#845f0b" vector-effect="non-scaling-stroke" d="
  M 626.02 411.53
  L 620.38 406.75"
/>
<path stroke="#06000b" vector-effect="non-scaling-stroke" d="
  M 620.38 406.75
  Q 618.92 403.72 615.77 403.04"
/>
<path stroke="#845f0b" vector-effect="non-scaling-stroke" d="
  M 615.77 403.04
  L 612.21 400.44"
/>
<path stroke="#06000b" vector-effect="non-scaling-stroke" d="
  M 612.21 400.44
  Q 610.82 399.30 609.84 399.55"
/>
<path stroke="#845f0b" vector-effect="non-scaling-stroke" d="
  M 609.84 399.55
  Q 603.63 395.18 597.09 397.88"
/>
<path stroke="#85808a" vector-effect="non-scaling-stroke" d="
  M 575.01 409.78
  L 574.57 406.11
  Q 574.51 405.59 573.98 405.54
  Q 573.60 405.51 573.08 405.69"
/>
<path stroke="#85808a" vector-effect="non-scaling-stroke" d="
  M 573.02 403.52
  L 573.71 403.49
  Q 574.25 403.47 574.27 402.93
  L 574.30 401.83"
/>
<path stroke="#7f5f00" vector-effect="non-scaling-stroke" d="
  M 609.84 399.55
  Q 610.71 400.55 612.21 400.44"
/>
<path stroke="#7f5f00" vector-effect="non-scaling-stroke" d="
  M 615.77 403.04
  L 620.38 406.75"
/>
<path stroke="#7f5f00" vector-effect="non-scaling-stroke" d="
  M 626.02 411.53
  Q 626.36 413.18 628.50 414.41"
/>
<path stroke="#7f5f00" vector-effect="non-scaling-stroke" d="
  M 640.59 477.53
  Q 639.32 477.45 639.09 478.51"
/>
<path stroke="#7f5f00" vector-effect="non-scaling-stroke" d="
  M 582.85 473.75
  Q 581.73 472.52 579.78 472.36"
/>
<path stroke="#7f5f00" vector-effect="non-scaling-stroke" d="
  M 566.71 463.16
  Q 567.33 462.11 565.07 461.30"
/>
<path stroke="#06000b" vector-effect="non-scaling-stroke" d="
  M 593.96 391.30
  Q 589.18 394.55 587.38 394.66
  C 583.18 394.93 579.18 396.52 576.37 399.70
  Q 575.40 400.79 574.30 401.83"
/>
<path stroke="#808080" vector-effect="non-scaling-stroke" d="
  M 574.30 401.83
  L 573.96 399.16
  Q 573.87 398.42 573.12 398.50
  L 567.35 399.10
  Q 566.62 399.17 566.70 399.90
  L 567.06 403.34
  Q 567.12 403.95 567.73 403.91
  L 573.02 403.52"
/>
<path stroke="#06000b" vector-effect="non-scaling-stroke" d="
  M 573.02 403.52
  L 573.08 405.69"
/>
<path stroke="#808080" vector-effect="non-scaling-stroke" d="
  M 573.08 405.69
  L 567.87 406.26
  Q 567.30 406.33 567.36 406.90
  L 569.08 424.90
  A 0.41 0.41 0.0 0 0 569.52 425.27
  L 575.99 424.66
  A 0.40 0.39 -5.8 0 0 576.35 424.23
  L 575.01 409.78"
/>
<path stroke="#06000b" vector-effect="non-scaling-stroke" d="
  M 575.01 409.78
  Q 578.63 412.06 581.80 414.27
  C 583.24 415.29 584.93 415.83 586.42 414.54
  C 590.13 411.34 592.15 407.09 592.39 402.25
  Q 592.47 400.60 593.70 399.50
  Q 595.00 398.34 597.09 397.88"
/>
<path stroke="#7f5f00" vector-effect="non-scaling-stroke" d="
  M 597.09 397.88
  Q 598.88 402.09 599.48 405.74
  Q 603.65 431.17 585.41 448.71
  Q 580.21 453.71 571.89 457.39
  Q 567.26 459.44 563.75 459.63"
/>
<path stroke="#06000b" vector-effect="non-scaling-stroke" d="
  M 563.75 459.63
  Q 563.36 459.71 563.04 459.55
  Q 562.87 459.47 562.77 459.31
  Q 561.43 457.14 560.32 455.18
  Q 557.12 449.56 559.12 443.26
  Q 559.70 441.43 561.49 440.98
  Q 567.61 439.42 571.80 433.41
  C 573.71 430.66 572.31 427.87 569.46 426.63
  A 0.67 0.66 12.7 0 1 569.06 426.01
  Q 569.06 425.59 568.73 425.38
  Q 567.31 424.53 565.97 424.32"
/>
<path stroke="#808080" vector-effect="non-scaling-stroke" d="
  M 565.97 424.32
  L 565.59 421.01
  Q 565.53 420.48 565.00 420.54
  L 557.83 421.27
  A 0.32 0.32 0.0 0 1 557.51 420.80
  L 564.17 408.61
  A 1.42 1.42 0.0 0 0 562.79 406.51
  L 546.42 408.07
  Q 546.09 408.10 546.12 408.43
  L 546.47 412.74
  Q 546.49 413.00 546.74 412.98
  L 553.49 412.38
  A 0.31 0.31 0.0 0 1 553.78 412.84
  Q 550.50 418.60 547.17 425.10
  A 1.39 1.38 11.2 0 0 548.52 427.11
  L 554.44 426.61"
/>
<path stroke="#06000b" vector-effect="non-scaling-stroke" d="
  M 554.44 426.61
  Q 553.27 430.39 553.20 437.01
  C 553.17 440.45 551.33 444.80 551.50 448.53
  Q 551.80 455.10 555.98 460.95"
/>
<path stroke="#67a7aa" vector-effect="non-scaling-stroke" d="
  M 705.57 290.46
  Q 710.13 294.70 715.98 295.98
  Q 728.23 298.67 737.95 290.59"
/>
<path stroke="#c7df9f" vector-effect="non-scaling-stroke" d="
  M 737.95 290.59
  Q 744.01 284.80 745.32 277.12
  C 747.26 265.64 740.72 255.01 729.89 251.00
  C 716.69 246.12 701.59 254.04 698.52 267.50
  Q 695.45 280.92 705.57 290.46"
/>
<path stroke="#9fa888" vector-effect="non-scaling-stroke" d="
  M 737.95 290.59
  Q 735.11 282.48 727.41 279.69
  A 0.60 0.60 0.0 0 1 727.22 278.68
  C 733.40 273.30 729.34 263.97 721.41 264.10
  C 716.00 264.20 712.59 269.12 713.58 274.26
  Q 714.09 276.93 716.15 278.59
  A 0.63 0.63 0.0 0 1 715.97 279.67
  Q 708.62 282.36 705.57 290.46"
/>
<path stroke="#c7df9f" vector-effect="non-scaling-stroke" d="
  M 745.78 333.19
  A 4.24 4.24 0.0 0 0 741.54 328.95
  L 701.80 328.95
  A 4.24 4.24 0.0 0 0 697.56 333.19
  L 697.56 342.51
  A 4.24 4.24 0.0 0 0 701.80 346.75
  L 741.54 346.75
  A 4.24 4.24 0.0 0 0 745.78 342.51
  L 745.78 333.19"
/>
<path stroke="#c7df9f" vector-effect="non-scaling-stroke" d="
  M 745.77 369.47
  A 4.32 4.32 0.0 0 0 741.45 365.15
  L 701.89 365.15
  A 4.32 4.32 0.0 0 0 697.57 369.47
  L 697.57 378.61
  A 4.32 4.32 0.0 0 0 701.89 382.93
  L 741.45 382.93
  A 4.32 4.32 0.0 0 0 745.77 378.61
  L 745.77 369.47"
/>
<path stroke="#f9dc80" vector-effect="non-scaling-stroke" d="
  M 803.85 264.81
  C 806.96 266.29 810.23 261.92 807.38 259.41
  C 802.73 255.32 794.47 255.56 789.52 258.02
  C 777.87 263.82 777.16 280.49 788.01 287.20
  Q 797.49 293.06 806.81 286.91
  Q 809.63 285.05 809.38 282.25
  C 809.18 280.08 806.76 278.91 804.82 279.86
  Q 803.77 280.37 802.93 281.22
  Q 801.25 282.93 798.66 283.26
  C 793.38 283.94 788.72 280.41 787.43 275.56
  C 785.57 268.53 791.40 262.34 798.43 262.82
  C 800.40 262.96 802.10 263.98 803.85 264.81"
/>
<path stroke="#f9dc80" vector-effect="non-scaling-stroke" d="
  M 831.80 277.09
  Q 831.50 277.07 831.39 276.75
  Q 828.13 267.39 825.02 258.65
  Q 823.90 255.50 820.69 256.43
  Q 818.81 256.98 818.44 259.48
  A 2.72 2.68 39.2 0 0 818.58 260.77
  Q 823.11 273.27 826.95 284.75
  C 827.99 287.86 829.75 291.53 833.85 289.44
  Q 835.18 288.76 835.65 287.32
  Q 840.27 273.08 844.70 260.11
  A 2.55 2.55 0.0 0 0 844.27 257.69
  Q 843.51 256.75 842.38 256.44
  Q 839.21 255.58 838.17 258.69
  L 832.02 276.95
  A 0.22 0.21 10.3 0 1 831.80 277.09"
/>
<path stroke="#9ab6c9" vector-effect="non-scaling-stroke" d="
  M 847.19 313.70
  A 3.44 3.44 0.0 0 0 843.75 310.26
  L 778.99 310.26
  A 3.44 3.44 0.0 0 0 775.55 313.70
  L 775.55 313.80
  A 3.44 3.44 0.0 0 0 778.99 317.24
  L 843.75 317.24
  A 3.44 3.44 0.0 0 0 847.19 313.80
  L 847.19 313.70"
/>
<path stroke="#9ab6c9" vector-effect="non-scaling-stroke" d="
  M 847.16 334.64
  A 3.26 3.26 0.0 0 0 843.90 331.38
  L 778.80 331.38
  A 3.26 3.26 0.0 0 0 775.54 334.64
  L 775.54 334.78
  A 3.26 3.26 0.0 0 0 778.80 338.04
  L 843.90 338.04
  A 3.26 3.26 0.0 0 0 847.16 334.78
  L 847.16 334.64"
/>
<path stroke="#9ab6c9" vector-effect="non-scaling-stroke" d="
  M 814.70 355.57
  A 3.33 3.33 0.0 0 0 811.37 352.24
  L 778.87 352.24
  A 3.33 3.33 0.0 0 0 775.54 355.57
  L 775.54 355.73
  A 3.33 3.33 0.0 0 0 778.87 359.06
  L 811.37 359.06
  A 3.33 3.33 0.0 0 0 814.70 355.73
  L 814.70 355.57"
/>
<path stroke="#9ab6c9" vector-effect="non-scaling-stroke" d="
  M 847.18 376.60
  A 3.31 3.31 0.0 0 0 843.87 373.29
  L 778.83 373.29
  A 3.31 3.31 0.0 0 0 775.52 376.60
  L 775.52 376.68
  A 3.31 3.31 0.0 0 0 778.83 379.99
  L 843.87 379.99
  A 3.31 3.31 0.0 0 0 847.18 376.68
  L 847.18 376.60"
/>
<path stroke="#9ab6c9" vector-effect="non-scaling-stroke" d="
  M 847.16 397.56
  A 3.40 3.40 0.0 0 0 843.76 394.16
  L 778.92 394.16
  A 3.40 3.40 0.0 0 0 775.52 397.56
  L 775.52 397.66
  A 3.40 3.40 0.0 0 0 778.92 401.06
  L 843.76 401.06
  A 3.40 3.40 0.0 0 0 847.16 397.66
  L 847.16 397.56"
/>
<path stroke="#9ab6c9" vector-effect="non-scaling-stroke" d="
  M 814.7198 418.9158
  A 3.26 3.26 0.0 0 0 811.4541 415.6615
  L 778.8142 415.7185
  A 3.26 3.26 0.0 0 0 775.5599 418.9842
  L 775.5602 419.1642
  A 3.26 3.26 0.0 0 0 778.8259 422.4185
  L 811.4658 422.3615
  A 3.26 3.26 0.0 0 0 814.7201 419.0958
  L 814.7198 418.9158"
/>
<path stroke="#808080" vector-effect="non-scaling-stroke" d="
  M 506.40 413.23
  L 505.65 405.20
  Q 505.63 405.02 505.45 405.03
  L 498.61 405.59
  A 0.25 0.24 85.3 0 0 498.39 405.86
  L 500.83 431.59
  Q 500.86 431.83 501.10 431.81
  L 507.83 431.21
  Q 508.10 431.18 508.08 430.91
  L 507.10 420.12
  Q 506.85 417.46 509.43 416.76
  Q 509.79 416.66 510.16 416.73
  Q 512.14 417.08 512.33 419.07
  L 513.40 430.15
  A 0.51 0.51 0.0 0 0 513.96 430.61
  L 520.23 430.00
  Q 520.76 429.95 520.70 429.41
  Q 520.05 424.03 519.65 418.50
  C 519.33 414.10 517.49 410.68 512.44 411.07
  Q 509.25 411.32 507.00 413.46
  Q 506.46 413.98 506.40 413.23"
/>
<path stroke="#808080" vector-effect="non-scaling-stroke" d="
  M 483.49 420.85
  A 0.35 0.35 0.0 0 1 482.85 420.68
  L 481.68 407.53
  A 0.35 0.35 0.0 0 0 481.30 407.21
  L 474.73 407.81
  A 0.35 0.35 0.0 0 0 474.41 408.19
  L 476.82 433.71
  A 0.35 0.35 0.0 0 0 477.20 434.03
  L 483.75 433.46
  A 0.35 0.35 0.0 0 0 484.07 433.08
  L 483.72 429.50
  A 0.35 0.35 0.0 0 1 483.80 429.25
  L 485.62 426.97
  A 0.35 0.35 0.0 0 1 486.17 426.98
  L 490.39 432.64
  A 0.35 0.35 0.0 0 0 490.71 432.78
  L 498.16 432.08
  A 0.35 0.35 0.0 0 0 498.41 431.52
  L 490.61 421.52
  A 0.35 0.35 0.0 0 1 490.60 421.10
  L 496.35 413.58
  A 0.35 0.35 0.0 0 0 496.04 413.02
  L 488.48 413.71
  A 0.35 0.35 0.0 0 0 488.22 413.87
  L 483.49 420.85"
/>
<path stroke="#808080" vector-effect="non-scaling-stroke" d="
  M 538.20 426.01
  L 538.35 427.07
  A 1.02 1.01 -6.6 0 0 539.44 427.93
  L 543.82 427.56
  Q 544.64 427.49 544.56 426.68
  L 542.83 408.76
  Q 542.79 408.35 542.37 408.39
  L 535.98 409.05
  A 0.43 0.42 84.6 0 0 535.60 409.52
  L 536.61 420.38
  Q 536.87 423.19 534.06 423.42
  L 533.71 423.45
  Q 531.56 423.62 531.36 421.48
  L 530.25 409.77
  A 0.20 0.19 83.1 0 0 530.03 409.59
  L 523.29 410.26
  Q 523.06 410.29 523.07 410.52
  Q 523.53 418.01 524.44 424.08
  C 525.49 431.12 533.88 430.08 537.53 425.82
  Q 538.07 425.19 538.20 426.01"
/>
<path stroke="#7f5f00" vector-effect="non-scaling-stroke" d="
  M 351.54 417.16
  Q 350.17 418.55 349.80 420.46
  Q 349.44 422.26 348.87 423.91
  C 347.71 427.29 347.72 429.94 348.87 433.20
  Q 349.40 434.69 349.88 436.17
  Q 350.52 438.19 352.76 441.06
  C 354.76 443.62 357.95 444.71 360.78 446.26
  Q 362.76 447.35 364.91 447.56
  Q 371.35 448.21 377.41 445.00
  Q 377.95 444.71 378.16 444.14
  Q 378.28 443.82 378.58 443.70
  Q 378.99 443.54 379.32 443.82
  L 394.60 456.66
  Q 396.65 458.38 398.28 456.27
  L 400.36 453.57
  Q 402.00 451.45 399.94 449.73
  L 385.13 437.45
  Q 384.79 437.17 384.85 436.74
  Q 385.17 434.46 385.84 432.41
  Q 386.81 429.46 386.11 426.48
  Q 385.76 424.98 385.57 423.48
  Q 385.38 421.95 384.85 420.59
  Q 382.43 414.39 376.41 410.85
  Q 375.94 410.58 375.41 410.68
  Q 374.54 410.85 374.10 410.20
  Q 373.77 409.71 373.18 409.67
  C 371.36 409.55 369.99 408.72 368.08 408.85
  Q 363.12 409.19 358.82 410.63
  Q 356.18 411.52 354.37 413.89
  Q 353.06 415.62 351.54 417.16"
/>
<path stroke="#808080" vector-effect="non-scaling-stroke" d="
  M 458.41 417.47
  L 457.66 409.60
  Q 457.65 409.45 457.50 409.47
  L 450.73 410.17
  Q 450.41 410.20 450.44 410.52
  L 452.83 435.74
  Q 452.89 436.36 453.50 436.29
  L 458.22 435.80
  Q 459.04 435.71 458.96 434.90
  Q 458.90 434.26 459.09 433.65
  Q 459.24 433.19 459.60 433.52
  Q 463.13 436.80 467.97 434.98
  C 473.37 432.94 473.31 426.03 471.91 421.31
  C 470.10 415.23 463.70 413.88 458.94 417.69
  Q 458.47 418.08 458.41 417.47"
/>
<path stroke="#808080" vector-effect="non-scaling-stroke" d="
  M 410.25 432.78
  L 409.93 431.85
  Q 409.73 431.25 409.09 431.31
  L 403.18 431.89
  Q 402.42 431.96 402.51 432.72
  C 403.58 441.10 412.08 441.90 418.28 439.27
  Q 423.56 437.03 423.06 430.80
  Q 422.41 422.65 421.58 414.51
  Q 421.54 414.16 421.19 414.19
  L 413.83 414.83
  Q 413.46 414.86 413.49 415.24
  Q 414.33 423.54 415.06 431.75
  Q 415.20 433.37 413.73 434.15
  A 2.46 2.45 -23.5 0 1 410.25 432.78"
/>
<path stroke="#808080" vector-effect="non-scaling-stroke" d="
  M 448.1834 426.1530
  A 9.08 9.08 0.0 0 0 438.2040 418.0719
  L 434.9221 418.4168
  A 9.08 9.08 0.0 0 0 426.8410 428.3962
  L 427.0166 430.0670
  A 9.08 9.08 0.0 0 0 436.9960 438.1481
  L 440.2779 437.8032
  A 9.08 9.08 0.0 0 0 448.3590 427.8238
  L 448.1834 426.1530"
/>
<path stroke="#06000b" vector-effect="non-scaling-stroke" d="
  M 704.21 413.42
  Q 701.37 414.71 701.00 417.43"
/>
<path stroke="#857049" vector-effect="non-scaling-stroke" d="
  M 701.00 417.43
  L 700.42 418.55"
/>
<path stroke="#4d6f6b" vector-effect="non-scaling-stroke" d="
  M 700.42 418.55
  Q 698.31 425.36 702.60 430.57"
/>
<path stroke="#253854" vector-effect="non-scaling-stroke" d="
  M 702.60 430.57
  Q 703.39 433.26 706.50 433.48"
/>
<path stroke="#4d6f6b" vector-effect="non-scaling-stroke" d="
  M 706.50 433.48
  Q 707.47 434.18 708.00 434.30
  Q 717.63 436.45 722.33 428.32
  Q 724.64 424.34 723.24 419.07"
/>
<path stroke="#857049" vector-effect="non-scaling-stroke" d="
  M 723.24 419.07
  Q 722.61 417.13 721.37 415.47"
/>
<path stroke="#845f0b" vector-effect="non-scaling-stroke" d="
  M 721.37 415.47
  Q 719.55 412.41 716.34 411.53"
/>
<path stroke="#857049" vector-effect="non-scaling-stroke" d="
  M 716.34 411.53
  Q 709.30 409.11 704.21 413.42"
/>
<path stroke="#fecf3f" vector-effect="non-scaling-stroke" d="
  M 716.34 411.53
  Q 717.04 412.62 718.04 412.91
  Q 718.51 413.05 718.82 413.43
  Q 719.85 414.72 721.37 415.47"
/>
<path stroke="#c7df9f" vector-effect="non-scaling-stroke" d="
  M 723.24 419.07
  Q 719.99 419.42 717.81 418.56"
/>
<path stroke="#857049" vector-effect="non-scaling-stroke" d="
  M 717.81 418.56
  Q 711.66 412.37 705.85 418.49"
/>
<path stroke="#c7df9f" vector-effect="non-scaling-stroke" d="
  M 705.85 418.49
  Q 703.44 419.99 700.42 418.55"
/>
<path stroke="#80703f" vector-effect="non-scaling-stroke" d="
  M 701.00 417.43
  L 704.21 413.42"
/>
<path stroke="#4d6f6b" vector-effect="non-scaling-stroke" d="
  M 717.81 418.56
  Q 717.87 419.07 718.61 420.91
  Q 719.50 423.13 718.22 425.55"
/>
<path stroke="#253854" vector-effect="non-scaling-stroke" d="
  M 718.22 425.55
  L 716.27 427.98"
/>
<path stroke="#4d6f6b" vector-effect="non-scaling-stroke" d="
  M 716.27 427.98
  Q 713.55 430.72 709.47 429.49"
/>
<path stroke="#253854" vector-effect="non-scaling-stroke" d="
  M 709.47 429.49
  L 706.39 427.26"
/>
<path stroke="#4d6f6b" vector-effect="non-scaling-stroke" d="
  M 706.39 427.26
  Q 703.06 424.10 705.85 418.49"
/>
<path stroke="#67a7aa" vector-effect="non-scaling-stroke" d="
  M 706.39 427.26
  Q 706.83 429.61 709.47 429.49"
/>
<path stroke="#67a7aa" vector-effect="non-scaling-stroke" d="
  M 716.27 427.98
  Q 718.20 428.07 718.22 425.55"
/>
<path stroke="#67a7aa" vector-effect="non-scaling-stroke" d="
  M 706.50 433.48
  Q 704.85 431.57 702.60 430.57"
/>
<path stroke="#7f5f00" vector-effect="non-scaling-stroke" d="
  M 356.94 419.93
  C 355.50 421.77 353.98 424.27 353.96 426.65
  Q 353.94 429.25 354.73 432.05
  Q 355.05 433.19 355.79 434.08
  Q 356.55 434.99 357.31 435.90
  Q 362.62 442.26 370.39 440.93
  Q 370.42 440.93 370.41 440.90
  Q 370.35 440.77 370.40 440.66
  Q 370.59 440.30 370.96 440.19
  Q 374.80 439.02 377.49 435.68
  Q 379.02 433.77 379.46 430.84
  Q 379.99 427.39 379.60 424.46
  Q 379.46 423.46 378.66 422.83
  Q 378.27 422.52 378.06 422.07
  C 375.81 417.09 370.20 414.25 364.70 415.48
  Q 359.51 416.64 356.94 419.93"
/>
<path stroke="#808080" vector-effect="non-scaling-stroke" d="
  M 465.1447 423.8125
  A 2.82 2.82 0.0 0 0 462.0718 421.2704
  L 461.6537 421.3099
  A 2.82 2.82 0.0 0 0 459.1116 424.3828
  L 459.4353 427.8075
  A 2.82 2.82 0.0 0 0 462.5082 430.3496
  L 462.9263 430.3101
  A 2.82 2.82 0.0 0 0 465.4684 427.2372
  L 465.1447 423.8125"
/>
<path stroke="#808080" vector-effect="non-scaling-stroke" d="
  M 440.8634 425.8982
  A 3.24 3.24 0.0 0 0 437.2626 423.0646
  L 436.7463 423.1262
  A 3.24 3.24 0.0 0 0 433.9127 426.7270
  L 434.3366 430.2818
  A 3.24 3.24 0.0 0 0 437.9374 433.1154
  L 438.4537 433.0538
  A 3.24 3.24 0.0 0 0 441.2873 429.4530
  L 440.8634 425.8982"
/>
</g>
<path fill="#ffffff" d="
  M 0.00 0.00
  L 1280.00 0.00
  L 1280.00 720.00
  L 0.00 720.00
  L 0.00 0.00
  Z
  M 466.47 307.70
  L 463.03 308.44
  L 456.72 310.14
  Q 454.72 309.76 453.13 310.71
  L 447.97 311.88
  Q 445.36 311.50 442.93 312.50
  Q 440.68 313.11 438.22 313.44
  Q 435.03 313.87 431.93 314.70
  Q 429.17 315.43 425.72 316.12
  Q 421.89 316.89 418.27 318.36
  Q 417.25 317.83 415.90 318.52
  Q 411.71 320.18 407.29 321.15
  C 404.53 321.75 402.01 322.83 399.29 323.53
  Q 396.27 324.30 393.31 325.21
  Q 389.87 326.26 386.34 327.41
  Q 377.85 330.17 368.55 333.74
  A 0.91 0.90 1.8 0 0 368.09 334.17
  Q 367.82 334.73 367.30 334.54
  Q 366.78 334.35 366.28 334.58
  Q 361.36 336.83 356.83 338.86
  Q 340.27 346.31 326.20 358.95
  Q 311.60 372.07 303.81 392.59
  Q 302.43 394.46 302.32 396.46
  L 301.74 398.43
  Q 300.85 400.03 300.71 401.60
  Q 297.26 414.65 295.87 430.27
  Q 295.59 433.39 296.72 435.91
  Q 297.93 438.59 298.15 439.76
  Q 298.61 442.25 299.13 444.84
  Q 299.49 446.64 299.75 449.95
  Q 300.04 453.66 301.13 457.29
  Q 300.74 458.40 301.62 459.71
  Q 312.08 483.71 331.69 499.56
  Q 349.75 514.16 373.41 528.08
  C 375.98 529.60 378.69 530.69 381.26 532.09
  Q 383.66 533.40 386.35 533.80
  Q 400.19 535.85 414.07 537.72
  Q 417.21 538.15 420.32 539.58
  Q 436.81 547.15 453.95 554.94
  Q 484.20 568.69 520.28 583.40
  Q 523.62 584.76 526.80 585.72
  Q 526.87 585.74 526.90 585.80
  Q 526.92 585.84 526.94 585.88
  Q 527.00 586.03 527.13 586.08
  Q 535.01 588.98 543.07 591.56
  Q 544.07 592.49 545.75 592.40
  Q 563.62 598.01 582.16 599.61
  C 597.59 600.95 612.92 598.71 626.40 590.96
  C 637.25 584.73 646.41 575.74 655.59 567.16
  Q 662.49 560.71 670.88 555.04
  Q 680.76 548.36 691.04 542.38
  Q 710.18 531.25 728.62 525.15
  Q 741.89 520.75 756.86 518.17
  Q 777.21 514.65 797.00 512.96
  Q 828.60 510.27 855.14 507.30
  Q 880.18 504.49 901.46 498.42
  Q 912.96 495.14 923.62 489.80
  Q 938.70 482.24 948.90 469.69
  Q 964.56 450.42 972.17 426.44
  C 973.60 421.94 973.71 417.03 973.73 412.37
  C 973.76 407.83 974.63 403.57 975.23 399.25
  Q 977.71 381.33 974.98 362.01
  Q 973.72 353.09 971.53 343.47
  Q 967.76 326.91 963.85 312.38
  Q 955.90 282.86 944.80 256.30
  C 933.94 230.28 919.95 205.73 902.49 184.88
  Q 889.87 169.80 873.63 156.88
  Q 864.63 149.71 856.68 145.47
  Q 848.79 141.26 838.50 138.19
  Q 825.90 134.45 812.68 130.16
  Q 799.73 125.96 783.65 123.31
  Q 768.41 120.80 751.21 120.01
  Q 723.86 118.73 697.92 125.74
  Q 694.76 126.59 691.93 127.28
  Q 687.97 128.23 684.12 129.76
  Q 683.66 129.94 683.16 129.92
  Q 682.72 129.90 682.29 130.04
  Q 671.86 133.43 662.37 137.23
  Q 650.64 141.93 640.83 147.89
  Q 621.35 159.74 601.27 176.67
  Q 555.40 215.37 520.01 263.93
  Q 515.12 270.64 508.90 277.90
  Q 498.06 290.57 485.49 299.43
  Q 478.45 304.39 466.47 307.70
  Z"
/>
<path fill="#fdbd00" d="
  M 545.75 592.40
  Q 544.65 591.11 543.07 591.56
  Q 535.01 588.98 527.13 586.08
  Q 527.00 586.03 526.94 585.88
  Q 526.92 585.84 526.90 585.80
  Q 526.87 585.74 526.80 585.72
  Q 523.62 584.76 520.28 583.40
  Q 484.20 568.69 453.95 554.94
  Q 436.81 547.15 420.32 539.58
  Q 417.21 538.15 414.07 537.72
  Q 400.19 535.85 386.35 533.80
  Q 383.66 533.40 381.26 532.09
  C 378.69 530.69 375.98 529.60 373.41 528.08
  Q 349.75 514.16 331.69 499.56
  Q 312.08 483.71 301.62 459.71
  Q 302.02 458.19 301.13 457.29
  Q 300.04 453.66 299.75 449.95
  Q 299.49 446.64 299.13 444.84
  Q 298.61 442.25 298.15 439.76
  Q 297.93 438.59 296.72 435.91
  Q 295.59 433.39 295.87 430.27
  Q 297.26 414.65 300.71 401.60
  Q 301.69 401.52 301.74 398.43
  L 302.32 396.46
  Q 303.95 395.36 303.81 392.59
  Q 311.60 372.07 326.20 358.95
  Q 340.27 346.31 356.83 338.86
  Q 361.36 336.83 366.28 334.58
  Q 366.78 334.35 367.30 334.54
  Q 367.82 334.73 368.09 334.17
  A 0.91 0.90 1.8 0 1 368.55 333.74
  Q 377.85 330.17 386.34 327.41
  Q 389.87 326.26 393.31 325.21
  Q 396.27 324.30 399.29 323.53
  C 402.01 322.83 404.53 321.75 407.29 321.15
  Q 411.71 320.18 415.90 318.52
  Q 415.80 319.84 418.27 318.36
  Q 421.89 316.89 425.72 316.12
  Q 429.17 315.43 431.93 314.70
  Q 435.03 313.87 438.22 313.44
  Q 440.68 313.11 442.93 312.50
  Q 443.76 313.02 444.94 312.97
  C 446.14 312.92 446.71 312.06 447.97 311.88
  L 453.13 310.71
  Q 455.03 311.55 456.72 310.14
  L 463.03 308.44
  Q 464.63 309.06 466.47 307.70
  Q 478.45 304.39 485.49 299.43
  Q 498.06 290.57 508.90 277.90
  Q 515.12 270.64 520.01 263.93
  Q 555.40 215.37 601.27 176.67
  Q 621.35 159.74 640.83 147.89
  Q 650.64 141.93 662.37 137.23
  Q 671.86 133.43 682.29 130.04
  Q 682.72 129.90 683.16 129.92
  Q 683.66 129.94 684.12 129.76
  Q 687.97 128.23 691.93 127.28
  Q 694.76 126.59 697.92 125.74
  Q 723.86 118.73 751.21 120.01
  Q 768.41 120.80 783.65 123.31
  Q 799.73 125.96 812.68 130.16
  Q 825.90 134.45 838.50 138.19
  Q 848.79 141.26 856.68 145.47
  Q 864.63 149.71 873.63 156.88
  Q 889.87 169.80 902.49 184.88
  C 919.95 205.73 933.94 230.28 944.80 256.30
  Q 955.90 282.86 963.85 312.38
  Q 967.76 326.91 971.53 343.47
  Q 973.72 353.09 974.98 362.01
  Q 977.71 381.33 975.23 399.25
  C 974.63 403.57 973.76 407.83 973.73 412.37
  C 973.71 417.03 973.60 421.94 972.17 426.44
  Q 964.56 450.42 948.90 469.69
  Q 938.70 482.24 923.62 489.80
  Q 912.96 495.14 901.46 498.42
  Q 880.18 504.49 855.14 507.30
  Q 828.60 510.27 797.00 512.96
  Q 777.21 514.65 756.86 518.17
  Q 741.89 520.75 728.62 525.15
  Q 710.18 531.25 691.04 542.38
  Q 680.76 548.36 670.88 555.04
  Q 662.49 560.71 655.59 567.16
  C 646.41 575.74 637.25 584.73 626.40 590.96
  C 612.92 598.71 597.59 600.95 582.16 599.61
  Q 563.62 598.01 545.75 592.40
  Z
  M 733.36 449.97
  Q 736.69 455.42 739.15 461.23
  C 743.16 470.68 744.69 483.81 739.45 492.51
  Q 734.43 500.85 725.29 503.75
  Q 719.37 505.63 714.30 505.63
  Q 696.95 505.61 680.93 496.99
  Q 679.50 495.23 677.58 495.31
  L 675.91 494.28
  Q 673.18 491.37 670.28 490.71
  L 665.19 487.01
  A 1.35 1.34 -79.4 0 1 664.66 486.23
  Q 663.51 481.71 662.02 479.51
  Q 661.72 479.08 660.40 477.73
  Q 660.45 476.55 659.30 476.06
  Q 658.06 474.49 658.33 473.32
  Q 660.01 466.17 660.10 461.62
  Q 660.33 450.52 654.13 436.22
  Q 653.83 435.54 653.23 435.96
  L 652.46 436.49
  A 0.93 0.92 59.5 0 1 651.10 436.13
  Q 646.80 427.43 640.75 418.57
  Q 639.81 417.19 638.56 416.08
  Q 638.27 415.82 638.10 415.46
  Q 637.38 413.97 636.15 412.70
  Q 635.85 411.59 634.80 411.06
  L 632.20 408.46
  Q 632.02 407.02 630.69 406.39
  L 616.69 395.24
  Q 615.15 393.64 613.56 393.54
  C 608.61 390.71 602.59 389.37 597.00 390.70
  Q 595.40 391.08 593.96 391.30
  C 587.30 379.40 575.42 371.18 562.04 368.90
  Q 556.57 367.97 545.46 369.03
  Q 461.93 376.96 380.71 384.80
  Q 362.10 386.60 360.82 386.85
  Q 338.82 391.18 328.01 412.19
  Q 327.29 413.60 326.73 415.36
  C 325.93 417.93 324.84 420.38 324.40 423.03
  Q 321.71 439.39 328.39 452.90
  Q 334.09 464.43 344.67 471.15
  Q 357.04 479.00 368.44 478.37
  Q 379.75 477.74 394.52 476.31
  Q 462.10 469.74 548.50 461.47
  Q 553.87 460.96 555.98 460.95
  L 562.14 467.57
  Q 564.40 470.89 568.29 472.53
  C 570.97 474.39 573.51 476.61 576.49 478.09
  Q 578.06 478.85 579.52 479.81
  Q 580.43 480.40 582.31 481.14
  Q 583.77 481.72 585.03 482.81
  Q 586.27 483.76 587.47 483.66
  L 588.55 484.35
  Q 589.06 485.03 590.69 484.97
  Q 599.22 488.38 608.23 490.40
  Q 608.90 490.55 608.76 491.22
  L 608.50 492.50
  Q 608.37 493.17 609.04 493.30
  C 620.16 495.44 632.31 495.41 642.39 490.62
  C 643.83 489.93 645.24 489.00 646.76 488.54
  Q 647.25 488.39 647.70 488.60
  Q 650.61 489.92 653.51 491.24
  Q 655.19 492.01 659.33 492.23
  C 661.21 492.34 662.12 493.22 663.52 494.26
  L 669.23 498.56
  Q 669.61 498.85 670.09 498.85
  Q 670.45 498.86 670.71 499.00
  L 672.35 500.01
  Q 673.66 501.36 674.48 500.67
  Q 675.63 501.80 678.73 503.22
  Q 688.83 507.86 695.21 509.75
  Q 708.99 513.82 723.27 511.17
  Q 729.66 509.98 736.32 505.80
  C 737.00 505.38 737.48 504.48 738.21 504.28
  Q 738.78 504.12 739.21 503.71
  Q 750.78 492.54 749.44 476.23
  Q 748.29 462.28 740.95 449.84
  L 760.89 449.96
  Q 803.54 449.96 846.52 449.98
  Q 854.09 449.98 856.38 449.13
  Q 862.12 447.00 862.13 439.24
  Q 862.20 339.74 862.15 233.69
  Q 862.15 228.08 857.80 225.42
  Q 855.44 223.98 849.92 223.98
  Q 805.48 223.96 760.88 223.98
  Q 728.10 223.95 695.14 223.99
  Q 689.38 223.99 687.06 225.20
  Q 682.75 227.45 682.75 233.38
  Q 682.70 337.24 682.75 440.14
  Q 682.75 446.29 687.64 448.72
  Q 690.06 449.92 696.79 449.93
  Q 715.11 449.97 733.36 449.97
  Z"
/>
<path fill="#8fddc1" d="
  M 760.88 223.98
  L 760.89 449.96
  L 740.95 449.84
  Q 737.18 442.97 732.20 436.95
  Q 731.96 435.43 730.83 434.97
  Q 728.52 433.32 727.45 430.98
  Q 727.24 430.53 727.43 430.06
  Q 729.59 424.67 728.73 419.09
  Q 734.56 419.24 740.24 419.11
  C 743.33 419.04 745.83 418.05 745.78 414.78
  Q 745.71 409.78 745.77 405.43
  A 4.11 4.11 0.0 0 0 741.65 401.26
  Q 723.65 401.29 702.04 401.24
  C 698.96 401.23 697.64 403.61 697.63 406.51
  Q 697.62 411.01 697.78 412.36
  Q 691.87 421.83 696.50 430.91
  Q 698.26 434.35 700.99 436.47
  C 706.08 440.42 713.27 441.01 719.02 438.31
  Q 720.81 437.47 722.34 436.47
  Q 722.87 436.12 723.20 436.66
  Q 724.50 438.82 726.62 440.51
  Q 726.34 441.81 727.99 442.43
  L 733.36 449.97
  Q 715.11 449.97 696.79 449.93
  Q 690.06 449.92 687.64 448.72
  Q 682.75 446.29 682.75 440.14
  Q 682.70 337.24 682.75 233.38
  Q 682.75 227.45 687.06 225.20
  Q 689.38 223.99 695.14 223.99
  Q 728.10 223.95 760.88 223.98
  Z
  M 705.57 290.46
  Q 710.13 294.70 715.98 295.98
  Q 728.23 298.67 737.95 290.59
  Q 744.01 284.80 745.32 277.12
  C 747.26 265.64 740.72 255.01 729.89 251.00
  C 716.69 246.12 701.59 254.04 698.52 267.50
  Q 695.45 280.92 705.57 290.46
  Z
  M 745.78 333.19
  A 4.24 4.24 0.0 0 0 741.54 328.95
  L 701.80 328.95
  A 4.24 4.24 0.0 0 0 697.56 333.19
  L 697.56 342.51
  A 4.24 4.24 0.0 0 0 701.80 346.75
  L 741.54 346.75
  A 4.24 4.24 0.0 0 0 745.78 342.51
  L 745.78 333.19
  Z
  M 745.77 369.47
  A 4.32 4.32 0.0 0 0 741.45 365.15
  L 701.89 365.15
  A 4.32 4.32 0.0 0 0 697.57 369.47
  L 697.57 378.61
  A 4.32 4.32 0.0 0 0 701.89 382.93
  L 741.45 382.93
  A 4.32 4.32 0.0 0 0 745.77 378.61
  L 745.77 369.47
  Z"
/>
<path fill="#f4fbff" d="
  M 760.88 223.98
  Q 805.48 223.96 849.92 223.98
  Q 855.44 223.98 857.80 225.42
  Q 862.15 228.08 862.15 233.69
  Q 862.20 339.74 862.13 439.24
  Q 862.12 447.00 856.38 449.13
  Q 854.09 449.98 846.52 449.98
  Q 803.54 449.96 760.89 449.96
  L 760.88 223.98
  Z
  M 803.85 264.81
  C 806.96 266.29 810.23 261.92 807.38 259.41
  C 802.73 255.32 794.47 255.56 789.52 258.02
  C 777.87 263.82 777.16 280.49 788.01 287.20
  Q 797.49 293.06 806.81 286.91
  Q 809.63 285.05 809.38 282.25
  C 809.18 280.08 806.76 278.91 804.82 279.86
  Q 803.77 280.37 802.93 281.22
  Q 801.25 282.93 798.66 283.26
  C 793.38 283.94 788.72 280.41 787.43 275.56
  C 785.57 268.53 791.40 262.34 798.43 262.82
  C 800.40 262.96 802.10 263.98 803.85 264.81
  Z
  M 831.80 277.09
  Q 831.50 277.07 831.39 276.75
  Q 828.13 267.39 825.02 258.65
  Q 823.90 255.50 820.69 256.43
  Q 818.81 256.98 818.44 259.48
  A 2.72 2.68 39.2 0 0 818.58 260.77
  Q 823.11 273.27 826.95 284.75
  C 827.99 287.86 829.75 291.53 833.85 289.44
  Q 835.18 288.76 835.65 287.32
  Q 840.27 273.08 844.70 260.11
  A 2.55 2.55 0.0 0 0 844.27 257.69
  Q 843.51 256.75 842.38 256.44
  Q 839.21 255.58 838.17 258.69
  L 832.02 276.95
  A 0.22 0.21 10.3 0 1 831.80 277.09
  Z
  M 847.19 313.70
  A 3.44 3.44 0.0 0 0 843.75 310.26
  L 778.99 310.26
  A 3.44 3.44 0.0 0 0 775.55 313.70
  L 775.55 313.80
  A 3.44 3.44 0.0 0 0 778.99 317.24
  L 843.75 317.24
  A 3.44 3.44 0.0 0 0 847.19 313.80
  L 847.19 313.70
  Z
  M 847.16 334.64
  A 3.26 3.26 0.0 0 0 843.90 331.38
  L 778.80 331.38
  A 3.26 3.26 0.0 0 0 775.54 334.64
  L 775.54 334.78
  A 3.26 3.26 0.0 0 0 778.80 338.04
  L 843.90 338.04
  A 3.26 3.26 0.0 0 0 847.16 334.78
  L 847.16 334.64
  Z
  M 814.70 355.57
  A 3.33 3.33 0.0 0 0 811.37 352.24
  L 778.87 352.24
  A 3.33 3.33 0.0 0 0 775.54 355.57
  L 775.54 355.73
  A 3.33 3.33 0.0 0 0 778.87 359.06
  L 811.37 359.06
  A 3.33 3.33 0.0 0 0 814.70 355.73
  L 814.70 355.57
  Z
  M 847.18 376.60
  A 3.31 3.31 0.0 0 0 843.87 373.29
  L 778.83 373.29
  A 3.31 3.31 0.0 0 0 775.52 376.60
  L 775.52 376.68
  A 3.31 3.31 0.0 0 0 778.83 379.99
  L 843.87 379.99
  A 3.31 3.31 0.0 0 0 847.18 376.68
  L 847.18 376.60
  Z
  M 847.16 397.56
  A 3.40 3.40 0.0 0 0 843.76 394.16
  L 778.92 394.16
  A 3.40 3.40 0.0 0 0 775.52 397.56
  L 775.52 397.66
  A 3.40 3.40 0.0 0 0 778.92 401.06
  L 843.76 401.06
  A 3.40 3.40 0.0 0 0 847.16 397.66
  L 847.16 397.56
  Z
  M 814.7198 418.9158
  A 3.26 3.26 0.0 0 0 811.4541 415.6615
  L 778.8142 415.7185
  A 3.26 3.26 0.0 0 0 775.5599 418.9842
  L 775.5602 419.1642
  A 3.26 3.26 0.0 0 0 778.8259 422.4185
  L 811.4658 422.3615
  A 3.26 3.26 0.0 0 0 814.7201 419.0958
  L 814.7198 418.9158
  Z"
/>
<path fill="#ffe07d" d="
  M 737.95 290.59
  Q 735.11 282.48 727.41 279.69
  A 0.60 0.60 0.0 0 1 727.22 278.68
  C 733.40 273.30 729.34 263.97 721.41 264.10
  C 716.00 264.20 712.59 269.12 713.58 274.26
  Q 714.09 276.93 716.15 278.59
  A 0.63 0.63 0.0 0 1 715.97 279.67
  Q 708.62 282.36 705.57 290.46
  Q 695.45 280.92 698.52 267.50
  C 701.59 254.04 716.69 246.12 729.89 251.00
  C 740.72 255.01 747.26 265.64 745.32 277.12
  Q 744.01 284.80 737.95 290.59
  Z"
/>
<path fill="#fdbd00" d="
  M 803.85 264.81
  C 802.10 263.98 800.40 262.96 798.43 262.82
  C 791.40 262.34 785.57 268.53 787.43 275.56
  C 788.72 280.41 793.38 283.94 798.66 283.26
  Q 801.25 282.93 802.93 281.22
  Q 803.77 280.37 804.82 279.86
  C 806.76 278.91 809.18 280.08 809.38 282.25
  Q 809.63 285.05 806.81 286.91
  Q 797.49 293.06 788.01 287.20
  C 777.16 280.49 777.87 263.82 789.52 258.02
  C 794.47 255.56 802.73 255.32 807.38 259.41
  C 810.23 261.92 806.96 266.29 803.85 264.81
  Z"
/>
<path fill="#fdbd00" d="
  M 831.80 277.09
  A 0.22 0.21 10.3 0 0 832.02 276.95
  L 838.17 258.69
  Q 839.21 255.58 842.38 256.44
  Q 843.51 256.75 844.27 257.69
  A 2.55 2.55 0.0 0 1 844.70 260.11
  Q 840.27 273.08 835.65 287.32
  Q 835.18 288.76 833.85 289.44
  C 829.75 291.53 827.99 287.86 826.95 284.75
  Q 823.11 273.27 818.58 260.77
  A 2.72 2.68 39.2 0 1 818.44 259.48
  Q 818.81 256.98 820.69 256.43
  Q 823.90 255.50 825.02 258.65
  Q 828.13 267.39 831.39 276.75
  Q 831.50 277.07 831.80 277.09
  Z"
/>
<path fill="#3f7093" d="
  M 737.95 290.59
  Q 728.23 298.67 715.98 295.98
  Q 710.13 294.70 705.57 290.46
  Q 708.62 282.36 715.97 279.67
  A 0.63 0.63 0.0 0 0 716.15 278.59
  Q 714.09 276.93 713.58 274.26
  C 712.59 269.12 716.00 264.20 721.41 264.10
  C 729.34 263.97 733.40 273.30 727.22 278.68
  A 0.60 0.60 0.0 0 0 727.41 279.69
  Q 735.11 282.48 737.95 290.59
  Z"
/>
<path fill="#ffe07d" d="
  M 466.47 307.70
  Q 464.63 309.06 463.03 308.44
  L 466.47 307.70
  Z"
/>
<path fill="#ffe07d" d="
  M 456.72 310.14
  Q 455.03 311.55 453.13 310.71
  Q 454.72 309.76 456.72 310.14
  Z"
/>
<rect fill="#3f7093" x="775.55" y="310.26" width="71.64" height="6.98" rx="3.44"/>
<path fill="#ffe07d" d="
  M 447.97 311.88
  C 446.71 312.06 446.14 312.92 444.94 312.97
  Q 443.76 313.02 442.93 312.50
  Q 445.36 311.50 447.97 311.88
  Z"
/>
<path fill="#ffe07d" d="
  M 418.27 318.36
  Q 415.80 319.84 415.90 318.52
  Q 417.25 317.83 418.27 318.36
  Z"
/>
<rect fill="#ffe07d" x="697.56" y="328.95" width="48.22" height="17.80" rx="4.24"/>
<rect fill="#3f7093" x="775.54" y="331.38" width="71.62" height="6.66" rx="3.26"/>
<rect fill="#3f7093" x="775.54" y="352.24" width="39.16" height="6.82" rx="3.33"/>
<rect fill="#ffe07d" x="697.57" y="365.15" width="48.20" height="17.78" rx="4.32"/>
<path fill="#000000" d="
  M 593.96 391.30
  Q 589.18 394.55 587.38 394.66
  C 583.18 394.93 579.18 396.52 576.37 399.70
  Q 575.40 400.79 574.30 401.83
  L 573.96 399.16
  Q 573.87 398.42 573.12 398.50
  L 567.35 399.10
  Q 566.62 399.17 566.70 399.90
  L 567.06 403.34
  Q 567.12 403.95 567.73 403.91
  L 573.02 403.52
  L 573.08 405.69
  L 567.87 406.26
  Q 567.30 406.33 567.36 406.90
  L 569.08 424.90
  A 0.41 0.41 0.0 0 0 569.52 425.27
  L 575.99 424.66
  A 0.40 0.39 -5.8 0 0 576.35 424.23
  L 575.01 409.78
  Q 578.63 412.06 581.80 414.27
  C 583.24 415.29 584.93 415.83 586.42 414.54
  C 590.13 411.34 592.15 407.09 592.39 402.25
  Q 592.47 400.60 593.70 399.50
  Q 595.00 398.34 597.09 397.88
  Q 598.88 402.09 599.48 405.74
  Q 603.65 431.17 585.41 448.71
  Q 580.21 453.71 571.89 457.39
  Q 567.26 459.44 563.75 459.63
  Q 563.36 459.71 563.04 459.55
  Q 562.87 459.47 562.77 459.31
  Q 561.43 457.14 560.32 455.18
  Q 557.12 449.56 559.12 443.26
  Q 559.70 441.43 561.49 440.98
  Q 567.61 439.42 571.80 433.41
  C 573.71 430.66 572.31 427.87 569.46 426.63
  A 0.67 0.66 12.7 0 1 569.06 426.01
  Q 569.06 425.59 568.73 425.38
  Q 567.31 424.53 565.97 424.32
  L 565.59 421.01
  Q 565.53 420.48 565.00 420.54
  L 557.83 421.27
  A 0.32 0.32 0.0 0 1 557.51 420.80
  L 564.17 408.61
  A 1.42 1.42 0.0 0 0 562.79 406.51
  L 546.42 408.07
  Q 546.09 408.10 546.12 408.43
  L 546.47 412.74
  Q 546.49 413.00 546.74 412.98
  L 553.49 412.38
  A 0.31 0.31 0.0 0 1 553.78 412.84
  Q 550.50 418.60 547.17 425.10
  A 1.39 1.38 11.2 0 0 548.52 427.11
  L 554.44 426.61
  Q 553.27 430.39 553.20 437.01
  C 553.17 440.45 551.33 444.80 551.50 448.53
  Q 551.80 455.10 555.98 460.95
  Q 553.87 460.96 548.50 461.47
  Q 462.10 469.74 394.52 476.31
  Q 379.75 477.74 368.44 478.37
  Q 357.04 479.00 344.67 471.15
  Q 334.09 464.43 328.39 452.90
  Q 321.71 439.39 324.40 423.03
  C 324.84 420.38 325.93 417.93 326.73 415.36
  Q 327.29 413.60 328.01 412.19
  Q 338.82 391.18 360.82 386.85
  Q 362.10 386.60 380.71 384.80
  Q 461.93 376.96 545.46 369.03
  Q 556.57 367.97 562.04 368.90
  C 575.42 371.18 587.30 379.40 593.96 391.30
  Z
  M 506.40 413.23
  L 505.65 405.20
  Q 505.63 405.02 505.45 405.03
  L 498.61 405.59
  A 0.25 0.24 85.3 0 0 498.39 405.86
  L 500.83 431.59
  Q 500.86 431.83 501.10 431.81
  L 507.83 431.21
  Q 508.10 431.18 508.08 430.91
  L 507.10 420.12
  Q 506.85 417.46 509.43 416.76
  Q 509.79 416.66 510.16 416.73
  Q 512.14 417.08 512.33 419.07
  L 513.40 430.15
  A 0.51 0.51 0.0 0 0 513.96 430.61
  L 520.23 430.00
  Q 520.76 429.95 520.70 429.41
  Q 520.05 424.03 519.65 418.50
  C 519.33 414.10 517.49 410.68 512.44 411.07
  Q 509.25 411.32 507.00 413.46
  Q 506.46 413.98 506.40 413.23
  Z
  M 483.49 420.85
  A 0.35 0.35 0.0 0 1 482.85 420.68
  L 481.68 407.53
  A 0.35 0.35 0.0 0 0 481.30 407.21
  L 474.73 407.81
  A 0.35 0.35 0.0 0 0 474.41 408.19
  L 476.82 433.71
  A 0.35 0.35 0.0 0 0 477.20 434.03
  L 483.75 433.46
  A 0.35 0.35 0.0 0 0 484.07 433.08
  L 483.72 429.50
  A 0.35 0.35 0.0 0 1 483.80 429.25
  L 485.62 426.97
  A 0.35 0.35 0.0 0 1 486.17 426.98
  L 490.39 432.64
  A 0.35 0.35 0.0 0 0 490.71 432.78
  L 498.16 432.08
  A 0.35 0.35 0.0 0 0 498.41 431.52
  L 490.61 421.52
  A 0.35 0.35 0.0 0 1 490.60 421.10
  L 496.35 413.58
  A 0.35 0.35 0.0 0 0 496.04 413.02
  L 488.48 413.71
  A 0.35 0.35 0.0 0 0 488.22 413.87
  L 483.49 420.85
  Z
  M 538.20 426.01
  L 538.35 427.07
  A 1.02 1.01 -6.6 0 0 539.44 427.93
  L 543.82 427.56
  Q 544.64 427.49 544.56 426.68
  L 542.83 408.76
  Q 542.79 408.35 542.37 408.39
  L 535.98 409.05
  A 0.43 0.42 84.6 0 0 535.60 409.52
  L 536.61 420.38
  Q 536.87 423.19 534.06 423.42
  L 533.71 423.45
  Q 531.56 423.62 531.36 421.48
  L 530.25 409.77
  A 0.20 0.19 83.1 0 0 530.03 409.59
  L 523.29 410.26
  Q 523.06 410.29 523.07 410.52
  Q 523.53 418.01 524.44 424.08
  C 525.49 431.12 533.88 430.08 537.53 425.82
  Q 538.07 425.19 538.20 426.01
  Z
  M 351.54 417.16
  Q 350.17 418.55 349.80 420.46
  Q 349.44 422.26 348.87 423.91
  C 347.71 427.29 347.72 429.94 348.87 433.20
  Q 349.40 434.69 349.88 436.17
  Q 350.52 438.19 352.76 441.06
  C 354.76 443.62 357.95 444.71 360.78 446.26
  Q 362.76 447.35 364.91 447.56
  Q 371.35 448.21 377.41 445.00
  Q 377.95 444.71 378.16 444.14
  Q 378.28 443.82 378.58 443.70
  Q 378.99 443.54 379.32 443.82
  L 394.60 456.66
  Q 396.65 458.38 398.28 456.27
  L 400.36 453.57
  Q 402.00 451.45 399.94 449.73
  L 385.13 437.45
  Q 384.79 437.17 384.85 436.74
  Q 385.17 434.46 385.84 432.41
  Q 386.81 429.46 386.11 426.48
  Q 385.76 424.98 385.57 423.48
  Q 385.38 421.95 384.85 420.59
  Q 382.43 414.39 376.41 410.85
  Q 375.94 410.58 375.41 410.68
  Q 374.54 410.85 374.10 410.20
  Q 373.77 409.71 373.18 409.67
  C 371.36 409.55 369.99 408.72 368.08 408.85
  Q 363.12 409.19 358.82 410.63
  Q 356.18 411.52 354.37 413.89
  Q 353.06 415.62 351.54 417.16
  Z
  M 458.41 417.47
  L 457.66 409.60
  Q 457.65 409.45 457.50 409.47
  L 450.73 410.17
  Q 450.41 410.20 450.44 410.52
  L 452.83 435.74
  Q 452.89 436.36 453.50 436.29
  L 458.22 435.80
  Q 459.04 435.71 458.96 434.90
  Q 458.90 434.26 459.09 433.65
  Q 459.24 433.19 459.60 433.52
  Q 463.13 436.80 467.97 434.98
  C 473.37 432.94 473.31 426.03 471.91 421.31
  C 470.10 415.23 463.70 413.88 458.94 417.69
  Q 458.47 418.08 458.41 417.47
  Z
  M 410.25 432.78
  L 409.93 431.85
  Q 409.73 431.25 409.09 431.31
  L 403.18 431.89
  Q 402.42 431.96 402.51 432.72
  C 403.58 441.10 412.08 441.90 418.28 439.27
  Q 423.56 437.03 423.06 430.80
  Q 422.41 422.65 421.58 414.51
  Q 421.54 414.16 421.19 414.19
  L 413.83 414.83
  Q 413.46 414.86 413.49 415.24
  Q 414.33 423.54 415.06 431.75
  Q 415.20 433.37 413.73 434.15
  A 2.46 2.45 -23.5 0 1 410.25 432.78
  Z
  M 448.1834 426.1530
  A 9.08 9.08 0.0 0 0 438.2040 418.0719
  L 434.9221 418.4168
  A 9.08 9.08 0.0 0 0 426.8410 428.3962
  L 427.0166 430.0670
  A 9.08 9.08 0.0 0 0 436.9960 438.1481
  L 440.2779 437.8032
  A 9.08 9.08 0.0 0 0 448.3590 427.8238
  L 448.1834 426.1530
  Z"
/>
<rect fill="#3f7093" x="775.52" y="373.29" width="71.66" height="6.70" rx="3.31"/>
<path fill="#0b0015" d="
  M 613.56 393.54
  Q 615.07 395.23 616.69 395.24
  L 630.69 406.39
  Q 631.25 407.59 632.20 408.46
  L 634.80 411.06
  Q 634.92 412.19 636.15 412.70
  Q 637.38 413.97 638.10 415.46
  Q 638.27 415.82 638.56 416.08
  Q 639.81 417.19 640.75 418.57
  Q 646.80 427.43 651.10 436.13
  A 0.93 0.92 59.5 0 0 652.46 436.49
  L 653.23 435.96
  Q 653.83 435.54 654.13 436.22
  Q 660.33 450.52 660.10 461.62
  Q 660.01 466.17 658.33 473.32
  Q 658.06 474.49 659.30 476.06
  Q 659.27 477.24 660.40 477.73
  Q 661.72 479.08 662.02 479.51
  Q 663.51 481.71 664.66 486.23
  A 1.35 1.34 -79.4 0 0 665.19 487.01
  L 670.28 490.71
  Q 672.95 493.46 675.91 494.28
  L 677.58 495.31
  Q 679.01 496.51 680.93 496.99
  Q 696.95 505.61 714.30 505.63
  Q 719.37 505.63 725.29 503.75
  Q 734.43 500.85 739.45 492.51
  C 744.69 483.81 743.16 470.68 739.15 461.23
  Q 736.69 455.42 733.36 449.97
  L 727.99 442.43
  Q 727.75 441.22 726.62 440.51
  Q 724.50 438.82 723.20 436.66
  Q 722.87 436.12 722.34 436.47
  Q 720.81 437.47 719.02 438.31
  C 713.27 441.01 706.08 440.42 700.99 436.47
  Q 698.26 434.35 696.50 430.91
  Q 691.87 421.83 697.78 412.36
  Q 700.60 409.08 703.00 407.80
  C 713.71 402.08 725.79 407.32 728.73 419.09
  Q 729.59 424.67 727.43 430.06
  Q 727.24 430.53 727.45 430.98
  Q 728.52 433.32 730.83 434.97
  Q 730.51 436.17 732.20 436.95
  Q 737.18 442.97 740.95 449.84
  Q 748.29 462.28 749.44 476.23
  Q 750.78 492.54 739.21 503.71
  Q 738.78 504.12 738.21 504.28
  C 737.48 504.48 737.00 505.38 736.32 505.80
  Q 729.66 509.98 723.27 511.17
  Q 708.99 513.82 695.21 509.75
  Q 688.83 507.86 678.73 503.22
  Q 675.63 501.80 674.48 500.67
  L 672.35 500.01
  L 670.71 499.00
  Q 667.35 495.76 663.52 494.26
  C 662.12 493.22 661.21 492.34 659.33 492.23
  Q 655.19 492.01 653.51 491.24
  Q 650.61 489.92 647.70 488.60
  Q 647.25 488.39 646.76 488.54
  C 645.24 489.00 643.83 489.93 642.39 490.62
  C 632.31 495.41 620.16 495.44 609.04 493.30
  Q 608.37 493.17 608.50 492.50
  L 608.76 491.22
  Q 608.90 490.55 608.23 490.40
  Q 599.22 488.38 590.69 484.97
  Q 589.89 484.24 588.55 484.35
  L 587.47 483.66
  Q 586.57 482.78 585.03 482.81
  Q 583.77 481.72 582.31 481.14
  Q 580.43 480.40 579.52 479.81
  Q 578.06 478.85 576.49 478.09
  C 573.51 476.61 570.97 474.39 568.29 472.53
  L 562.14 467.57
  L 555.98 460.95
  Q 551.80 455.10 551.50 448.53
  C 551.33 444.80 553.17 440.45 553.20 437.01
  Q 553.27 430.39 554.44 426.61
  L 565.46 425.46
  Q 565.98 425.41 566.02 424.89
  Q 566.04 424.59 565.97 424.32
  Q 567.31 424.53 568.73 425.38
  Q 569.06 425.59 569.06 426.01
  A 0.67 0.66 12.7 0 0 569.46 426.63
  C 572.31 427.87 573.71 430.66 571.80 433.41
  Q 567.61 439.42 561.49 440.98
  Q 559.70 441.43 559.12 443.26
  Q 557.12 449.56 560.32 455.18
  Q 561.43 457.14 562.77 459.31
  Q 562.87 459.47 563.04 459.55
  Q 563.36 459.71 563.75 459.63
  L 565.07 461.30
  Q 565.48 462.54 566.71 463.16
  Q 569.62 465.57 572.55 467.83
  Q 573.63 468.67 576.21 469.97
  Q 578.10 470.93 579.78 472.36
  Q 581.33 473.49 582.85 473.75
  C 584.42 475.16 586.61 475.73 588.06 476.53
  Q 590.34 477.76 593.07 478.78
  Q 601.42 481.89 609.46 483.66
  A 0.69 0.68 2.7 0 0 610.29 482.91
  Q 610.21 482.28 610.51 481.73
  Q 610.76 481.27 611.27 481.36
  C 619.91 482.82 631.34 483.48 639.09 478.51
  Q 640.31 478.21 640.59 477.53
  Q 646.02 472.76 647.17 467.44
  Q 648.44 461.61 646.86 453.41
  Q 645.74 447.62 642.97 441.15
  A 0.65 0.64 74.7 0 1 643.47 440.26
  L 644.51 440.12
  Q 645.36 440.01 645.00 439.23
  Q 640.38 429.36 633.71 420.71
  Q 633.61 420.57 633.63 420.41
  Q 633.66 420.13 633.47 419.92
  L 628.50 414.41
  Q 627.68 412.64 626.02 411.53
  L 620.38 406.75
  Q 618.92 403.72 615.77 403.04
  L 612.21 400.44
  Q 610.82 399.30 609.84 399.55
  Q 603.63 395.18 597.09 397.88
  Q 595.00 398.34 593.70 399.50
  Q 592.47 400.60 592.39 402.25
  C 592.15 407.09 590.13 411.34 586.42 414.54
  C 584.93 415.83 583.24 415.29 581.80 414.27
  Q 578.63 412.06 575.01 409.78
  L 574.57 406.11
  Q 574.51 405.59 573.98 405.54
  Q 573.60 405.51 573.08 405.69
  L 573.02 403.52
  L 573.71 403.49
  Q 574.25 403.47 574.27 402.93
  L 574.30 401.83
  Q 575.40 400.79 576.37 399.70
  C 579.18 396.52 583.18 394.93 587.38 394.66
  Q 589.18 394.55 593.96 391.30
  Q 595.40 391.08 597.00 390.70
  C 602.59 389.37 608.61 390.71 613.56 393.54
  Z
  M 704.21 413.42
  Q 701.37 414.71 701.00 417.43
  L 700.42 418.55
  Q 698.31 425.36 702.60 430.57
  Q 703.39 433.26 706.50 433.48
  Q 707.47 434.18 708.00 434.30
  Q 717.63 436.45 722.33 428.32
  Q 724.64 424.34 723.24 419.07
  Q 722.61 417.13 721.37 415.47
  Q 719.55 412.41 716.34 411.53
  Q 709.30 409.11 704.21 413.42
  Z"
/>
<path fill="#ffe07d" d="
  M 303.81 392.59
  Q 303.95 395.36 302.32 396.46
  Q 302.43 394.46 303.81 392.59
  Z"
/>
<path fill="#000000" d="
  M 613.56 393.54
  Q 615.15 393.64 616.69 395.24
  Q 615.07 395.23 613.56 393.54
  Z"
/>
<rect fill="#3f7093" x="775.52" y="394.16" width="71.64" height="6.90" rx="3.40"/>
<path fill="#fdbd00" d="
  M 609.84 399.55
  Q 610.71 400.55 612.21 400.44
  L 615.77 403.04
  L 620.38 406.75
  L 626.02 411.53
  Q 626.36 413.18 628.50 414.41
  L 633.47 419.92
  Q 633.66 420.13 633.63 420.41
  Q 633.61 420.57 633.71 420.71
  Q 640.38 429.36 645.00 439.23
  Q 645.36 440.01 644.51 440.12
  L 643.47 440.26
  A 0.65 0.64 74.7 0 0 642.97 441.15
  Q 645.74 447.62 646.86 453.41
  Q 648.44 461.61 647.17 467.44
  Q 646.02 472.76 640.59 477.53
  Q 639.32 477.45 639.09 478.51
  C 631.34 483.48 619.91 482.82 611.27 481.36
  Q 610.76 481.27 610.51 481.73
  Q 610.21 482.28 610.29 482.91
  A 0.69 0.68 2.7 0 1 609.46 483.66
  Q 601.42 481.89 593.07 478.78
  Q 590.34 477.76 588.06 476.53
  C 586.61 475.73 584.42 475.16 582.85 473.75
  Q 581.73 472.52 579.78 472.36
  Q 578.10 470.93 576.21 469.97
  Q 573.63 468.67 572.55 467.83
  Q 569.62 465.57 566.71 463.16
  Q 567.33 462.11 565.07 461.30
  L 563.75 459.63
  Q 567.26 459.44 571.89 457.39
  Q 580.21 453.71 585.41 448.71
  Q 603.65 431.17 599.48 405.74
  Q 598.88 402.09 597.09 397.88
  Q 603.63 395.18 609.84 399.55
  Z"
/>
<path fill="#ffe07d" d="
  M 301.74 398.43
  Q 301.69 401.52 300.71 401.60
  Q 300.85 400.03 301.74 398.43
  Z"
/>
<path fill="#ffffff" d="
  M 574.30 401.83
  L 574.27 402.93
  Q 574.25 403.47 573.71 403.49
  L 573.02 403.52
  L 567.73 403.91
  Q 567.12 403.95 567.06 403.34
  L 566.70 399.90
  Q 566.62 399.17 567.35 399.10
  L 573.12 398.50
  Q 573.87 398.42 573.96 399.16
  L 574.30 401.83
  Z"
/>
<path fill="#000000" d="
  M 612.21 400.44
  Q 610.71 400.55 609.84 399.55
  Q 610.82 399.30 612.21 400.44
  Z"
/>
<path fill="#ffe07d" d="
  M 728.73 419.09
  C 725.79 407.32 713.71 402.08 703.00 407.80
  Q 700.60 409.08 697.78 412.36
  Q 697.62 411.01 697.63 406.51
  C 697.64 403.61 698.96 401.23 702.04 401.24
  Q 723.65 401.29 741.65 401.26
  A 4.11 4.11 0.0 0 1 745.77 405.43
  Q 745.71 409.78 745.78 414.78
  C 745.83 418.05 743.33 419.04 740.24 419.11
  Q 734.56 419.24 728.73 419.09
  Z"
/>
<path fill="#000000" d="
  M 615.77 403.04
  Q 618.92 403.72 620.38 406.75
  L 615.77 403.04
  Z"
/>
<path fill="#ffffff" d="
  M 507.00 413.46
  Q 509.25 411.32 512.44 411.07
  C 517.49 410.68 519.33 414.10 519.65 418.50
  Q 520.05 424.03 520.70 429.41
  Q 520.76 429.95 520.23 430.00
  L 513.96 430.61
  A 0.51 0.51 0.0 0 1 513.40 430.15
  L 512.33 419.07
  Q 512.14 417.08 510.16 416.73
  Q 509.79 416.66 509.43 416.76
  Q 506.85 417.46 507.10 420.12
  L 508.08 430.91
  Q 508.10 431.18 507.83 431.21
  L 501.10 431.81
  Q 500.86 431.83 500.83 431.59
  L 498.39 405.86
  A 0.25 0.24 85.3 0 1 498.61 405.59
  L 505.45 405.03
  Q 505.63 405.02 505.65 405.20
  L 506.40 413.23
  Q 506.46 413.98 507.00 413.46
  Z"
/>
<path fill="#ffffff" d="
  M 575.01 409.78
  L 576.35 424.23
  A 0.40 0.39 -5.8 0 1 575.99 424.66
  L 569.52 425.27
  A 0.41 0.41 0.0 0 1 569.08 424.90
  L 567.36 406.90
  Q 567.30 406.33 567.87 406.26
  L 573.08 405.69
  Q 573.60 405.51 573.98 405.54
  Q 574.51 405.59 574.57 406.11
  L 575.01 409.78
  Z"
/>
<path fill="#000000" d="
  M 630.69 406.39
  Q 632.02 407.02 632.20 408.46
  Q 631.25 407.59 630.69 406.39
  Z"
/>
<path fill="#ffffff" d="
  M 565.97 424.32
  Q 566.04 424.59 566.02 424.89
  Q 565.98 425.41 565.46 425.46
  L 554.44 426.61
  L 548.52 427.11
  A 1.39 1.38 11.2 0 1 547.17 425.10
  Q 550.50 418.60 553.78 412.84
  A 0.31 0.31 0.0 0 0 553.49 412.38
  L 546.74 412.98
  Q 546.49 413.00 546.47 412.74
  L 546.12 408.43
  Q 546.09 408.10 546.42 408.07
  L 562.79 406.51
  A 1.42 1.42 0.0 0 1 564.17 408.61
  L 557.51 420.80
  A 0.32 0.32 0.0 0 0 557.83 421.27
  L 565.00 420.54
  Q 565.53 420.48 565.59 421.01
  L 565.97 424.32
  Z"
/>
<path fill="#ffffff" d="
  M 483.49 420.85
  L 488.22 413.87
  A 0.35 0.35 0.0 0 1 488.48 413.71
  L 496.04 413.02
  A 0.35 0.35 0.0 0 1 496.35 413.58
  L 490.60 421.10
  A 0.35 0.35 0.0 0 0 490.61 421.52
  L 498.41 431.52
  A 0.35 0.35 0.0 0 1 498.16 432.08
  L 490.71 432.78
  A 0.35 0.35 0.0 0 1 490.39 432.64
  L 486.17 426.98
  A 0.35 0.35 0.0 0 0 485.62 426.97
  L 483.80 429.25
  A 0.35 0.35 0.0 0 0 483.72 429.50
  L 484.07 433.08
  A 0.35 0.35 0.0 0 1 483.75 433.46
  L 477.20 434.03
  A 0.35 0.35 0.0 0 1 476.82 433.71
  L 474.41 408.19
  A 0.35 0.35 0.0 0 1 474.73 407.81
  L 481.30 407.21
  A 0.35 0.35 0.0 0 1 481.68 407.53
  L 482.85 420.68
  A 0.35 0.35 0.0 0 0 483.49 420.85
  Z"
/>
<path fill="#ffffff" d="
  M 537.53 425.82
  C 533.88 430.08 525.49 431.12 524.44 424.08
  Q 523.53 418.01 523.07 410.52
  Q 523.06 410.29 523.29 410.26
  L 530.03 409.59
  A 0.20 0.19 83.1 0 1 530.25 409.77
  L 531.36 421.48
  Q 531.56 423.62 533.71 423.45
  L 534.06 423.42
  Q 536.87 423.19 536.61 420.38
  L 535.60 409.52
  A 0.43 0.42 84.6 0 1 535.98 409.05
  L 542.37 408.39
  Q 542.79 408.35 542.83 408.76
  L 544.56 426.68
  Q 544.64 427.49 543.82 427.56
  L 539.44 427.93
  A 1.02 1.01 -6.6 0 1 538.35 427.07
  L 538.20 426.01
  Q 538.07 425.19 537.53 425.82
  Z"
/>
<path fill="#fdbd00" d="
  M 354.37 413.89
  Q 356.18 411.52 358.82 410.63
  Q 363.12 409.19 368.08 408.85
  C 369.99 408.72 371.36 409.55 373.18 409.67
  Q 373.77 409.71 374.10 410.20
  Q 374.54 410.85 375.41 410.68
  Q 375.94 410.58 376.41 410.85
  Q 382.43 414.39 384.85 420.59
  Q 385.38 421.95 385.57 423.48
  Q 385.76 424.98 386.11 426.48
  Q 386.81 429.46 385.84 432.41
  Q 385.17 434.46 384.85 436.74
  Q 384.79 437.17 385.13 437.45
  L 399.94 449.73
  Q 402.00 451.45 400.36 453.57
  L 398.28 456.27
  Q 396.65 458.38 394.60 456.66
  L 379.32 443.82
  Q 378.99 443.54 378.58 443.70
  Q 378.28 443.82 378.16 444.14
  Q 377.95 444.71 377.41 445.00
  Q 371.35 448.21 364.91 447.56
  Q 362.76 447.35 360.78 446.26
  C 357.95 444.71 354.76 443.62 352.76 441.06
  Q 350.52 438.19 349.88 436.17
  Q 349.40 434.69 348.87 433.20
  C 347.72 429.94 347.71 427.29 348.87 423.91
  Q 349.44 422.26 349.80 420.46
  Q 350.17 418.55 351.54 417.16
  Q 353.06 415.62 354.37 413.89
  Z
  M 356.94 419.93
  C 355.50 421.77 353.98 424.27 353.96 426.65
  Q 353.94 429.25 354.73 432.05
  Q 355.05 433.19 355.79 434.08
  Q 356.55 434.99 357.31 435.90
  Q 362.62 442.26 370.39 440.93
  Q 370.42 440.93 370.41 440.90
  Q 370.35 440.77 370.40 440.66
  Q 370.59 440.30 370.96 440.19
  Q 374.80 439.02 377.49 435.68
  Q 379.02 433.77 379.46 430.84
  Q 379.99 427.39 379.60 424.46
  Q 379.46 423.46 378.66 422.83
  Q 378.27 422.52 378.06 422.07
  C 375.81 417.09 370.20 414.25 364.70 415.48
  Q 359.51 416.64 356.94 419.93
  Z"
/>
<path fill="#ffffff" d="
  M 458.94 417.69
  C 463.70 413.88 470.10 415.23 471.91 421.31
  C 473.31 426.03 473.37 432.94 467.97 434.98
  Q 463.13 436.80 459.60 433.52
  Q 459.24 433.19 459.09 433.65
  Q 458.90 434.26 458.96 434.90
  Q 459.04 435.71 458.22 435.80
  L 453.50 436.29
  Q 452.89 436.36 452.83 435.74
  L 450.44 410.52
  Q 450.41 410.20 450.73 410.17
  L 457.50 409.47
  Q 457.65 409.45 457.66 409.60
  L 458.41 417.47
  Q 458.47 418.08 458.94 417.69
  Z
  M 465.1447 423.8125
  A 2.82 2.82 0.0 0 0 462.0718 421.2704
  L 461.6537 421.3099
  A 2.82 2.82 0.0 0 0 459.1116 424.3828
  L 459.4353 427.8075
  A 2.82 2.82 0.0 0 0 462.5082 430.3496
  L 462.9263 430.3101
  A 2.82 2.82 0.0 0 0 465.4684 427.2372
  L 465.1447 423.8125
  Z"
/>
<path fill="#ffe07d" d="
  M 716.34 411.53
  Q 717.04 412.62 718.04 412.91
  Q 718.51 413.05 718.82 413.43
  Q 719.85 414.72 721.37 415.47
  Q 722.61 417.13 723.24 419.07
  Q 719.99 419.42 717.81 418.56
  Q 711.66 412.37 705.85 418.49
  Q 703.44 419.99 700.42 418.55
  L 701.00 417.43
  L 704.21 413.42
  Q 709.30 409.11 716.34 411.53
  Z"
/>
<path fill="#000000" d="
  M 634.80 411.06
  Q 635.85 411.59 636.15 412.70
  Q 634.92 412.19 634.80 411.06
  Z"
/>
<path fill="#000000" d="
  M 626.02 411.53
  Q 627.68 412.64 628.50 414.41
  Q 626.36 413.18 626.02 411.53
  Z"
/>
<path fill="#fdbd00" d="
  M 716.34 411.53
  Q 719.55 412.41 721.37 415.47
  Q 719.85 414.72 718.82 413.43
  Q 718.51 413.05 718.04 412.91
  Q 717.04 412.62 716.34 411.53
  Z"
/>
<path fill="#000000" d="
  M 704.21 413.42
  L 701.00 417.43
  Q 701.37 414.71 704.21 413.42
  Z"
/>
<path fill="#ffffff" d="
  M 410.25 432.78
  A 2.46 2.45 -23.5 0 0 413.73 434.15
  Q 415.20 433.37 415.06 431.75
  Q 414.33 423.54 413.49 415.24
  Q 413.46 414.86 413.83 414.83
  L 421.19 414.19
  Q 421.54 414.16 421.58 414.51
  Q 422.41 422.65 423.06 430.80
  Q 423.56 437.03 418.28 439.27
  C 412.08 441.90 403.58 441.10 402.51 432.72
  Q 402.42 431.96 403.18 431.89
  L 409.09 431.31
  Q 409.73 431.25 409.93 431.85
  L 410.25 432.78
  Z"
/>
<path fill="#000000" d="
  M 356.94 419.93
  Q 359.51 416.64 364.70 415.48
  C 370.20 414.25 375.81 417.09 378.06 422.07
  Q 378.27 422.52 378.66 422.83
  Q 379.46 423.46 379.60 424.46
  Q 379.99 427.39 379.46 430.84
  Q 379.02 433.77 377.49 435.68
  Q 374.80 439.02 370.96 440.19
  Q 370.59 440.30 370.40 440.66
  Q 370.35 440.77 370.41 440.90
  Q 370.42 440.93 370.39 440.93
  Q 362.62 442.26 357.31 435.90
  Q 356.55 434.99 355.79 434.08
  Q 355.05 433.19 354.73 432.05
  Q 353.94 429.25 353.96 426.65
  C 353.98 424.27 355.50 421.77 356.94 419.93
  Z"
/>
<path fill="#0b0015" d="
  M 717.81 418.56
  Q 717.87 419.07 718.61 420.91
  Q 719.50 423.13 718.22 425.55
  L 716.27 427.98
  Q 713.55 430.72 709.47 429.49
  L 706.39 427.26
  Q 703.06 424.10 705.85 418.49
  Q 711.66 412.37 717.81 418.56
  Z"
/>
<rect fill="#3f7093" x="-19.58" y="-3.35" transform="translate(795.14,419.04) rotate(-0.1)" width="39.16" height="6.70" rx="3.26"/>
<path fill="#ffffff" d="
  M 448.3590 427.8238
  A 9.08 9.08 0.0 0 1 440.2779 437.8032
  L 436.9960 438.1481
  A 9.08 9.08 0.0 0 1 427.0166 430.0670
  L 426.8410 428.3962
  A 9.08 9.08 0.0 0 1 434.9221 418.4168
  L 438.2040 418.0719
  A 9.08 9.08 0.0 0 1 448.1834 426.1530
  L 448.3590 427.8238
  Z
  M 440.8634 425.8982
  A 3.24 3.24 0.0 0 0 437.2626 423.0646
  L 436.7463 423.1262
  A 3.24 3.24 0.0 0 0 433.9127 426.7270
  L 434.3366 430.2818
  A 3.24 3.24 0.0 0 0 437.9374 433.1154
  L 438.4537 433.0538
  A 3.24 3.24 0.0 0 0 441.2873 429.4530
  L 440.8634 425.8982
  Z"
/>
<path fill="#8fddc1" d="
  M 700.42 418.55
  Q 703.44 419.99 705.85 418.49
  Q 703.06 424.10 706.39 427.26
  Q 706.83 429.61 709.47 429.49
  Q 713.55 430.72 716.27 427.98
  Q 718.20 428.07 718.22 425.55
  Q 719.50 423.13 718.61 420.91
  Q 717.87 419.07 717.81 418.56
  Q 719.99 419.42 723.24 419.07
  Q 724.64 424.34 722.33 428.32
  Q 717.63 436.45 708.00 434.30
  Q 707.47 434.18 706.50 433.48
  Q 704.85 431.57 702.60 430.57
  Q 698.31 425.36 700.42 418.55
  Z"
/>
<rect fill="#000000" x="-3.03" y="-4.54" transform="translate(462.29,425.81) rotate(-5.4)" width="6.06" height="9.08" rx="2.82"/>
<rect fill="#000000" x="-3.50" y="-5.03" transform="translate(437.60,428.09) rotate(-6.8)" width="7.00" height="10.06" rx="3.24"/>
<path fill="#3f7093" d="
  M 718.22 425.55
  Q 718.20 428.07 716.27 427.98
  L 718.22 425.55
  Z"
/>
<path fill="#3f7093" d="
  M 706.39 427.26
  L 709.47 429.49
  Q 706.83 429.61 706.39 427.26
  Z"
/>
<path fill="#3f7093" d="
  M 702.60 430.57
  Q 704.85 431.57 706.50 433.48
  Q 703.39 433.26 702.60 430.57
  Z"
/>
<path fill="#3f7093" d="
  M 730.83 434.97
  Q 731.96 435.43 732.20 436.95
  Q 730.51 436.17 730.83 434.97
  Z"
/>
<path fill="#3f7093" d="
  M 726.62 440.51
  Q 727.75 441.22 727.99 442.43
  Q 726.34 441.81 726.62 440.51
  Z"
/>
<path fill="#ffe07d" d="
  M 301.13 457.29
  Q 302.02 458.19 301.62 459.71
  Q 300.74 458.40 301.13 457.29
  Z"
/>
<path fill="#000000" d="
  M 565.07 461.30
  Q 567.33 462.11 566.71 463.16
  Q 565.48 462.54 565.07 461.30
  Z"
/>
<path fill="#000000" d="
  M 562.14 467.57
  L 568.29 472.53
  Q 564.40 470.89 562.14 467.57
  Z"
/>
<path fill="#000000" d="
  M 579.78 472.36
  Q 581.73 472.52 582.85 473.75
  Q 581.33 473.49 579.78 472.36
  Z"
/>
<path fill="#000000" d="
  M 659.30 476.06
  Q 660.45 476.55 660.40 477.73
  Q 659.27 477.24 659.30 476.06
  Z"
/>
<path fill="#000000" d="
  M 640.59 477.53
  Q 640.31 478.21 639.09 478.51
  Q 639.32 477.45 640.59 477.53
  Z"
/>
<path fill="#000000" d="
  M 585.03 482.81
  Q 586.57 482.78 587.47 483.66
  Q 586.27 483.76 585.03 482.81
  Z"
/>
<path fill="#000000" d="
  M 588.55 484.35
  Q 589.89 484.24 590.69 484.97
  Q 589.06 485.03 588.55 484.35
  Z"
/>
<path fill="#000000" d="
  M 670.28 490.71
  Q 673.18 491.37 675.91 494.28
  Q 672.95 493.46 670.28 490.71
  Z"
/>
<path fill="#000000" d="
  M 663.52 494.26
  Q 667.35 495.76 670.71 499.00
  Q 670.45 498.86 670.09 498.85
  Q 669.61 498.85 669.23 498.56
  L 663.52 494.26
  Z"
/>
<path fill="#000000" d="
  M 677.58 495.31
  Q 679.50 495.23 680.93 496.99
  Q 679.01 496.51 677.58 495.31
  Z"
/>
<path fill="#000000" d="
  M 672.35 500.01
  L 674.48 500.67
  Q 673.66 501.36 672.35 500.01
  Z"
/>
<path fill="#ffe07d" d="
  M 543.07 591.56
  Q 544.65 591.11 545.75 592.40
  Q 544.07 592.49 543.07 591.56
  Z"
/>
</svg>
